<svg xmlns="http://www.w3.org/2000/svg" xmlns:xlink="http://www.w3.org/1999/xlink" version="1.1" width="1000" height="1000" viewBox="0 0 1000 1000" xml:space="preserve">
<desc>Created with Fabric.js 3.5.0</desc>
<defs>
</defs>
<rect x="0" y="0" width="100%" height="100%" fill="#ffffff"/>
<g transform="matrix(0.0186 0 0 0.0186 18.042 45.8664)" id="56282">
<g style="" vector-effect="non-scaling-stroke">
		<g transform="matrix(0.1333 0 0 -0.1333 -9.6128 -2.4102)">
<path style="stroke: none; stroke-width: 1; stroke-dasharray: none; stroke-linecap: butt; stroke-dashoffset: 0; stroke-linejoin: miter; stroke-miterlimit: 4; is-custom-font: none; font-file-url: none; fill: rgb(0,0,0); fill-rule: nonzero; opacity: 1;" transform=" translate(-7203.7926, -6872.1878)" d="M 6900 10415 c -124 -7 -254 -17 -290 -23 c -36 -6 -96 -16 -134 -22 c -38 -6 -114 -26 -170 -45 c -55 -18 -128 -39 -161 -45 c -33 -7 -69 -18 -80 -25 c -11 -6 -39 -15 -63 -19 c -52 -8 -77 -19 -362 -158 c -191 -94 -412 -223 -461 -270 c -8 -7 -27 -22 -44 -32 c -24 -16 -27 -16 -16 -3 c 12 15 11 17 -8 17 c -14 0 -21 -6 -21 -20 c 0 -13 -7 -20 -20 -20 c -13 0 -20 -7 -20 -20 c 0 -13 -7 -20 -20 -20 c -11 0 -20 -6 -20 -14 c 0 -8 -9 -17 -19 -21 c -11 -3 -22 -12 -25 -20 c -3 -8 -11 -15 -19 -15 c -7 0 -33 -20 -57 -45 c -24 -25 -49 -45 -55 -45 c -5 0 -26 -18 -45 -40 c -19 -22 -40 -40 -46 -40 c -7 0 -14 -9 -17 -20 c -3 -11 -12 -20 -20 -20 c -8 0 -17 -9 -20 -20 c -3 -11 -12 -20 -20 -20 c -8 0 -17 -9 -20 -20 c -3 -11 -12 -20 -21 -20 c -9 0 -16 -7 -16 -15 c 0 -7 -6 -18 -14 -22 c -8 -4 -28 -25 -45 -46 c -33 -42 -130 -150 -186 -208 c -19 -20 -35 -41 -35 -47 c 0 -6 -9 -16 -20 -22 c -11 -6 -20 -15 -20 -21 c 0 -5 -8 -19 -19 -30 c -10 -11 -21 -38 -25 -60 c -3 -21 -11 -39 -17 -39 c -14 0 -59 -47 -59 -60 c 0 -5 -9 -14 -20 -20 c -11 -6 -20 -15 -20 -21 c 0 -6 -9 -22 -20 -36 c -11 -14 -20 -34 -20 -44 c 0 -10 -9 -23 -20 -29 c -11 -6 -20 -20 -20 -30 c 0 -11 -9 -29 -20 -40 c -11 -11 -20 -26 -20 -32 c 0 -7 -9 -24 -20 -38 c -11 -14 -20 -38 -20 -55 c 0 -46 -11 -75 -26 -75 c -8 0 -14 -9 -14 -20 c 0 -12 -9 -30 -20 -42 c -13 -14 -20 -36 -20 -59 c 0 -29 -5 -39 -20 -44 c -14 -4 -20 -15 -20 -35 c 0 -16 -9 -45 -20 -65 c -11 -20 -20 -47 -20 -61 c 0 -35 -21 -114 -30 -114 c -4 0 -11 -36 -14 -79 c -5 -55 -12 -81 -22 -85 c -10 -4 -14 -24 -14 -76 c 0 -57 -4 -74 -20 -90 c -18 -18 -20 -33 -20 -162 c 0 -155 -5 -188 -26 -188 c -12 0 -14 -61 -14 -387 c 1 -366 9 -502 32 -527 c 4 -6 8 -34 8 -63 c 0 -34 7 -65 20 -88 c 11 -20 20 -54 20 -77 c 0 -24 7 -49 16 -59 c 9 -10 19 -46 24 -81 c 4 -35 15 -80 24 -100 c 16 -38 22 -88 10 -88 c -4 0 -13 8 -20 17 c -12 17 -13 16 -14 -4 c 0 -16 6 -23 20 -23 c 14 0 20 -7 20 -24 c 0 -17 5 -23 18 -22 c 18 1 19 -6 21 -111 c 1 -36 4 -43 21 -43 c 17 0 20 -7 20 -40 c 0 -30 4 -40 16 -40 c 11 0 14 6 9 23 c -6 18 -5 20 6 10 c 7 -7 12 -27 12 -45 c 0 -18 2 -27 4 -21 c 5 15 33 -8 33 -27 c 0 -7 9 -23 20 -37 c 15 -19 20 -41 20 -84 c 0 -44 4 -59 14 -59 c 9 0 12 7 9 23 c -4 18 -3 19 6 7 c 6 -8 11 -36 11 -62 c 0 -35 4 -48 14 -48 c 10 0 12 7 8 22 c -3 14 -2 19 6 14 c 7 -4 12 -11 12 -16 c 0 -5 14 -29 30 -54 c 22 -32 38 -46 58 -48 c 23 -3 28 -8 30 -38 c 2 -19 12 -43 23 -53 c 10 -10 19 -24 19 -31 c 0 -7 9 -21 20 -31 c 11 -10 20 -25 20 -34 c 0 -9 18 -36 40 -60 c 22 -24 40 -48 40 -54 c 0 -13 61 -88 117 -145 c 24 -24 43 -50 43 -58 c 0 -8 7 -14 15 -14 c 9 0 18 -7 21 -15 c 9 -22 86 -101 107 -108 c 12 -4 17 -17 17 -42 c 0 -28 4 -35 20 -35 c 13 0 20 -7 20 -20 c 0 -13 7 -20 20 -20 c 13 0 20 -7 20 -20 c 0 -16 7 -20 36 -20 c 27 0 37 -5 41 -20 c 3 -10 14 -22 24 -25 c 10 -4 19 -13 19 -21 c 0 -8 9 -14 20 -14 c 13 0 20 -7 20 -20 c 0 -16 7 -20 36 -20 c 27 0 37 -5 41 -20 c 3 -11 14 -20 24 -20 c 12 0 19 -7 19 -20 c 0 -13 7 -20 20 -20 c 13 0 20 -7 20 -20 c 0 -13 7 -20 20 -20 c 13 0 20 -7 20 -19 c 0 -14 10 -20 40 -25 c 26 -4 40 -11 40 -21 c 0 -8 9 -15 20 -15 c 17 0 20 -7 20 -40 c 0 -33 3 -40 20 -40 c 11 0 20 7 20 15 c 0 8 7 15 15 15 c 8 0 15 -7 15 -15 c 0 -9 9 -15 21 -15 c 12 0 23 -8 26 -20 c 5 -17 14 -20 64 -20 c 52 0 59 -2 59 -19 c 0 -16 8 -20 38 -23 c 30 -2 38 -7 40 -26 c 3 -20 9 -22 40 -20 c 32 3 37 0 40 -19 c 3 -19 10 -23 38 -23 c 24 0 34 -5 34 -15 c 0 -9 9 -15 21 -15 c 12 0 23 -8 26 -20 c 3 -11 14 -20 24 -20 c 12 0 19 -7 19 -20 c 0 -26 26 -26 33 0 c 8 31 47 27 47 -5 c 0 -24 2 -25 40 -19 l 40 7 l 0 -42 l 0 -41 l 40 0 c 33 0 40 -3 40 -20 c 0 -16 7 -20 33 -20 c 47 0 77 -10 77 -26 c 0 -7 11 -16 25 -20 c 14 -3 25 -12 25 -20 c 0 -11 27 -14 140 -14 c 133 0 140 -1 140 -20 c 0 -19 7 -20 140 -20 c 133 0 140 -1 140 -20 c 0 -19 7 -20 160 -20 c 136 0 160 2 160 15 c 0 8 9 15 20 15 c 11 0 20 -7 20 -15 c 0 -17 97 -21 460 -16 c 173 2 221 6 245 18 c 20 11 67 18 140 21 c 69 3 103 8 90 13 c -17 6 -17 8 -2 8 c 9 1 17 6 17 11 c 0 6 9 10 19 10 c 10 0 38 9 62 20 c 24 11 57 20 72 20 c 15 0 44 7 65 16 c 20 8 55 19 77 24 c 44 9 123 36 170 57 c 17 7 50 21 75 31 c 39 14 364 187 424 225 c 11 7 45 27 75 46 c 31 19 99 66 151 104 c 52 39 115 84 139 101 c 23 17 84 67 135 112 c 50 44 106 93 125 110 c 41 36 227 244 302 339 c 71 88 239 340 312 467 c 73 126 230 467 267 577 c 40 122 114 413 144 566 c 62 325 73 458 57 720 c -14 249 -42 432 -105 695 c -30 124 -57 241 -61 260 c -7 38 -20 78 -41 127 c -8 17 -14 35 -14 41 c 0 5 -7 15 -15 22 c -8 7 -15 23 -15 35 c 0 13 -7 36 -15 52 c -8 15 -43 93 -77 173 c -34 80 -77 170 -95 200 c -17 30 -43 76 -57 103 c -45 85 -179 277 -192 277 c -8 0 -14 6 -14 14 c 0 8 -11 28 -25 44 c -14 17 -25 34 -25 38 c 0 5 -13 21 -28 36 c -19 19 -34 25 -49 22 c -19 -5 -20 -9 -10 -28 c 7 -11 14 -23 17 -26 c 54 -53 137 -177 235 -355 c 27 -49 58 -103 67 -120 c 45 -76 93 -177 125 -260 c 42 -108 43 -111 53 -95 c 10 17 40 5 40 -15 c 0 -8 -7 -15 -15 -15 c -8 0 -15 -3 -15 -6 c 0 -4 31 -98 69 -209 c 62 -181 74 -229 111 -447 c 58 -334 69 -433 76 -653 c 7 -210 3 -255 -52 -565 c -69 -388 -107 -525 -223 -788 c -23 -51 -41 -99 -41 -107 c 0 -29 -137 -283 -232 -430 c -161 -250 -385 -498 -698 -775 c -203 -179 -419 -327 -609 -417 c -206 -98 -221 -104 -231 -98 c -5 3 -12 0 -15 -6 c -4 -5 -13 -8 -21 -5 c -7 3 -16 1 -19 -4 c -4 -6 -13 -10 -20 -10 c -8 0 -38 -11 -67 -24 c -102 -46 -153 -62 -176 -57 c -13 3 -22 11 -22 16 c 2 10 74 50 134 74 c 22 9 26 14 17 25 c -9 10 -7 17 5 27 c 10 8 55 59 102 114 c 104 122 213 235 227 235 c 6 0 44 -34 85 -75 c 57 -57 70 -76 58 -80 c -20 -8 -66 16 -114 57 l -36 32 l -134 -136 c -118 -121 -154 -168 -126 -168 c 43 0 310 117 385 168 c 23 17 59 37 80 45 c 37 16 40 17 55 17 c 4 0 23 15 43 33 c 20 18 80 63 135 100 c 54 36 146 110 204 164 c 195 181 471 487 604 668 c 51 70 169 263 222 365 l 37 70 l -26 28 c -15 15 -34 50 -43 77 c -28 83 -41 91 -73 46 c -19 -27 -72 -186 -65 -194 c 2 -2 33 1 69 7 c 36 5 68 7 71 4 c 9 -10 -48 -89 -71 -98 c -30 -11 -102 4 -134 28 c -32 25 -31 39 15 155 c 23 58 32 93 26 99 c -11 11 -14 7 -102 -130 c -33 -51 -60 -98 -60 -104 c 0 -6 7 -16 15 -22 c 12 -9 6 -31 -41 -146 c -31 -74 -68 -171 -83 -215 c -31 -88 -88 -216 -151 -340 c -27 -53 -58 -96 -92 -127 c -48 -45 -168 -134 -168 -125 c 0 2 27 26 61 53 c 61 49 106 100 96 110 c -3 3 -43 -3 -89 -15 c -133 -32 -154 -35 -161 -18 c -3 8 0 22 6 31 c 13 17 284 99 303 92 c 16 -6 36 41 40 95 c 2 25 24 113 50 195 c 59 189 65 217 63 275 c -2 26 2 54 7 61 c 6 7 38 47 71 88 c 80 98 213 329 262 455 c 43 108 143 440 166 545 c 7 36 21 130 30 210 c 8 80 20 172 25 205 c 5 33 10 146 10 252 c 0 304 -44 586 -131 833 c -17 47 -53 150 -80 230 c -28 80 -85 219 -129 310 c -43 91 -88 197 -101 235 c -30 94 -103 234 -138 266 c -32 29 -104 49 -178 49 c -57 0 -47 -16 27 -45 c 32 -12 55 -28 60 -41 c 5 -12 21 -35 37 -53 c 34 -36 105 -161 132 -229 c 11 -26 37 -87 60 -135 c 23 -49 41 -91 41 -94 c 0 -3 7 -19 15 -36 c 19 -42 66 -154 126 -304 c 62 -152 133 -455 144 -615 c 4 -46 8 -91 11 -100 c 5 -18 5 -301 0 -333 c -2 -11 -6 -31 -9 -45 c -10 -47 -40 -201 -41 -218 c -1 -9 -10 -42 -19 -73 c -10 -31 -17 -61 -16 -65 c 4 -22 -3 -33 -23 -40 l -23 -7 l 23 -8 l 23 -9 l -21 -22 c -15 -16 -17 -24 -8 -30 c 10 -6 10 -10 -1 -17 c -8 -5 -11 -16 -8 -24 c 4 -10 -1 -17 -11 -20 c -16 -4 -15 -5 1 -6 c 24 -1 21 -31 -4 -31 c -11 0 -18 -4 -15 -9 c 4 -5 2 -21 -4 -35 c -8 -22 -14 -25 -35 -20 c -15 4 -25 2 -25 -5 c 0 -6 7 -8 15 -5 c 10 4 15 0 15 -10 c 0 -9 -11 -21 -25 -26 c -14 -5 -25 -12 -25 -15 c 0 -4 5 -3 11 1 c 16 9 30 -18 17 -33 c -6 -7 -26 -13 -44 -13 c -20 0 -34 -5 -35 -12 c -2 -20 -5 -32 -11 -48 c -3 -8 -20 -55 -38 -105 c -50 -139 -178 -395 -277 -555 c -184 -298 -203 -326 -254 -383 c -28 -32 -105 -103 -171 -158 c -65 -55 -158 -138 -206 -183 c -103 -99 -331 -283 -453 -366 c -101 -69 -224 -132 -324 -167 c -102 -35 -394 -109 -521 -132 c -339 -61 -755 -44 -1009 40 c -115 39 -82 56 36 20 c 144 -44 441 -84 564 -75 c 28 1 91 5 140 8 c 119 6 556 89 670 127 c 124 41 396 177 475 237 c 36 28 109 92 163 144 l 99 93 l -7 41 l -7 42 l -61 7 c -107 12 -194 70 -237 159 c -26 55 -30 74 -35 196 c -6 126 -8 137 -31 161 l -25 26 l 78 7 c 170 16 189 17 169 5 c -10 -6 -47 -14 -82 -17 c -35 -2 -64 -9 -64 -13 c 0 -15 46 -21 112 -15 c 34 3 89 5 121 6 c 36 0 56 4 52 10 c -3 6 -18 10 -33 10 c -17 0 -23 3 -16 10 c 6 6 23 4 49 -4 c 26 -9 47 -11 63 -5 c 21 8 23 7 15 -13 c -4 -13 -7 -49 -6 -80 c 6 -196 6 -410 -1 -452 c -8 -48 -7 -49 12 -35 c 62 45 327 264 384 318 c 66 62 141 167 172 243 c 9 20 20 39 26 43 c 19 12 10 25 -14 19 c -18 -4 -27 -1 -36 15 c -6 12 -16 21 -23 21 c -7 0 -22 7 -33 14 c -17 13 -14 14 23 3 c 23 -7 45 -16 49 -20 c 4 -4 21 -7 38 -7 c 26 1 28 2 14 11 c -25 14 -22 29 6 29 c 25 0 40 18 88 108 c 33 63 33 62 12 62 c -11 0 -14 -5 -10 -16 c 5 -13 1 -15 -21 -9 c -26 6 -27 6 -10 -13 c 9 -10 17 -22 17 -25 c 0 -16 -22 -4 -57 31 c -33 33 -42 37 -67 31 c -16 -4 -40 -7 -55 -5 c -14 2 -18 1 -8 -1 c 9 -2 17 -9 17 -15 c 0 -6 10 -8 24 -4 c 18 4 33 -1 53 -18 l 28 -25 l -45 6 c -25 4 -57 7 -72 7 c -16 1 -28 4 -28 8 c 0 4 -28 5 -62 1 c -60 -6 -62 -5 -45 11 c 9 10 17 19 17 20 c 0 2 -27 4 -60 4 c -36 1 -58 -3 -55 -9 c 7 -11 -18 -12 -29 -1 c -7 7 -86 12 -86 5 c 0 -2 11 -8 24 -13 c 17 -6 24 -16 23 -30 c -1 -20 -5 -21 -47 -14 c -25 3 -51 7 -57 7 c -7 0 -16 9 -19 20 c -5 16 -8 17 -15 6 c -8 -12 -10 -12 -18 0 c -5 7 -10 9 -12 3 c -2 -5 -44 -12 -94 -16 c -49 -3 -83 -3 -75 0 c 8 3 30 13 49 21 l 34 16 l -24 14 c -23 13 -22 14 21 10 c 25 -3 54 -8 64 -13 c 16 -6 18 -4 14 20 c -4 22 -2 26 11 21 c 9 -4 21 -8 26 -9 c 6 -1 16 -5 23 -9 c 7 -5 22 -5 35 -1 c 36 12 67 11 67 -3 c 0 -7 5 -13 10 -13 c 6 0 10 7 10 16 c 0 14 7 16 43 10 c 88 -13 141 -11 131 5 c -4 8 3 9 24 4 c 18 -4 38 -1 50 6 c 16 10 27 9 60 -4 c 23 -9 44 -13 46 -8 c 8 12 66 20 66 9 c 0 -4 9 -8 20 -8 c 12 0 20 -7 20 -17 c 1 -17 1 -17 13 -1 c 7 9 25 20 40 23 c 15 4 27 11 27 15 c 0 14 -59 52 -69 45 c -5 -3 -12 -1 -16 5 c -3 5 -17 10 -30 10 c -13 0 -26 6 -28 13 c -4 9 -7 9 -15 -1 c -7 -10 -11 -10 -22 3 c -7 8 -20 16 -29 17 c -9 0 4 4 29 7 c 30 4 50 2 60 -6 c 10 -8 26 -10 43 -5 l 28 7 l -28 37 c -31 40 -58 56 -86 50 c -14 -3 -15 -7 -7 -17 c 9 -11 5 -12 -26 -2 c -31 9 -38 9 -49 -6 c -7 -9 -22 -17 -33 -17 c -11 0 -23 -4 -27 -9 c -6 -10 -65 -4 -100 10 l -20 8 l 20 1 c 11 0 38 9 60 19 c 36 17 37 20 15 21 c -133 8 -163 12 -172 25 c -12 17 2 25 44 25 l 41 0 l -21 19 c -12 10 -22 21 -22 25 c 0 10 18 7 32 -7 c 7 -7 33 -19 57 -27 c 24 -8 54 -25 67 -39 c 19 -21 28 -23 66 -17 c 23 4 62 10 85 13 c 37 5 41 8 32 24 c -14 28 -47 43 -64 29 c -8 -7 -15 -7 -19 -1 c -3 5 -1 11 6 13 c 6 2 8 10 4 16 c -9 14 -66 16 -66 2 c 0 -5 -3 -10 -7 -10 c -10 0 -73 55 -73 63 c 0 3 12 7 28 9 c 24 4 25 5 8 13 c -11 5 -31 4 -47 -2 c -16 -6 -29 -8 -29 -3 c 0 4 9 10 21 13 c 43 11 6 26 -62 25 c -51 -1 -75 3 -86 15 c -14 14 -10 15 45 10 c 33 -3 69 -2 79 1 c 16 7 16 9 -7 21 l -25 14 l 23 1 c 13 0 30 7 39 15 c 13 14 11 15 -25 9 c -31 -5 -40 -3 -45 10 c -4 9 -11 16 -17 16 c -14 0 -13 -27 3 -33 c 6 -3 2 -6 -10 -6 c -12 -1 -25 4 -29 10 c -4 7 -21 9 -44 5 c -29 -5 -41 -2 -55 14 c -17 19 -17 20 46 19 c 35 0 75 2 89 4 c 14 3 47 5 74 6 c 47 1 48 2 33 19 c -10 10 -17 26 -17 35 c 0 20 -11 27 -74 42 l -51 13 l 52 1 c 49 1 53 -1 102 -51 c 33 -34 70 -89 102 -153 c 60 -118 95 -179 125 -220 c 39 -54 104 -181 104 -204 c 0 -39 21 -12 67 88 c 125 268 183 443 217 657 c 37 227 79 520 84 581 c 10 130 -93 721 -160 913 c -65 188 -222 478 -376 695 c -235 331 -272 374 -347 412 c -27 14 -102 57 -165 95 c -323 196 -447 261 -672 354 c -60 24 -143 61 -185 83 c -43 21 -148 64 -233 95 c -85 32 -204 77 -265 101 c -129 50 -318 112 -462 150 l -102 28 l -148 -37 c -177 -44 -470 -140 -637 -208 c -160 -65 -161 -66 -91 -24 c 57 34 115 58 421 176 c 198 76 378 130 436 130 c 64 0 269 -54 468 -124 c 85 -30 241 -84 345 -121 c 105 -36 258 -97 341 -135 c 83 -39 156 -70 161 -70 c 20 0 359 -169 478 -238 c 110 -64 157 -84 109 -47 c -206 161 -593 364 -904 473 c -152 54 -430 161 -498 193 c -68 32 -161 64 -174 61 c -5 -1 -8 2 -8 8 c 0 6 -9 10 -19 10 c -11 0 -26 3 -35 6 c -29 11 -17 24 23 24 c 22 0 43 5 47 12 c 4 6 3 8 -4 4 c -6 -3 -13 -2 -17 4 c -4 6 33 10 107 10 c 91 0 156 -8 324 -40 c 323 -61 435 -99 766 -255 c 109 -51 195 -89 193 -84 c -13 20 -328 186 -442 232 c -133 54 -486 146 -678 178 c -148 24 -355 38 -465 33 c -204 -11 -688 -98 -851 -153 c -143 -48 -302 -119 -426 -190 c -143 -82 -171 -97 -158 -83 c 21 22 194 125 275 164 c 306 146 805 296 1033 312 c 38 2 70 6 73 8 c 2 3 -32 38 -77 79 c -45 41 -92 93 -106 117 c -26 44 -27 44 -79 6 c -17 -12 -54 -35 -82 -51 c -28 -15 -96 -72 -152 -125 c -91 -88 -130 -115 -130 -89 c 0 13 -71 116 -80 116 c -14 0 -170 -137 -206 -182 c -39 -47 -80 -73 -117 -73 c -13 0 -34 -11 -47 -25 c -29 -31 -42 -32 -38 -4 c 3 24 8 27 88 59 c 40 17 75 43 130 99 c 169 172 246 241 289 256 c 55 19 105 19 121 1 c 9 -12 4 -18 -29 -35 c -48 -25 -62 -26 -54 -5 c 5 13 2 15 -18 9 c -27 -9 -70 -37 -87 -58 c -9 -11 -3 -25 26 -65 c 20 -28 41 -52 46 -52 c 4 0 57 47 117 104 c 59 57 136 122 171 145 c 111 72 108 68 74 76 c -17 5 -103 -3 -217 -20 c -104 -15 -196 -25 -204 -21 c -8 3 -26 1 -40 -4 c -15 -6 -27 -6 -30 0 c -3 5 11 13 32 19 c 268 68 366 84 618 102 c 161 11 413 6 577 -12 c 163 -17 553 -98 672 -139 c 193 -67 506 -198 601 -252 c 336 -192 512 -314 745 -518 c 116 -101 110 -98 110 -60 c 0 25 -3 31 -16 26 c -13 -5 -15 -1 -12 24 c 3 19 0 30 -8 30 c -6 0 -17 7 -24 15 c -7 8 -21 15 -31 15 c -11 0 -19 7 -20 18 c 0 9 -25 38 -56 64 c -42 36 -61 46 -78 42 c -17 -4 -24 0 -28 15 c -3 13 -13 21 -26 21 c -12 0 -21 6 -21 14 c 0 7 -9 16 -20 19 c -11 3 -20 13 -20 24 c 0 21 -57 63 -87 63 c -13 0 -24 8 -28 20 c -7 21 -14 24 -52 20 c -14 -1 -23 4 -23 13 c 0 21 -71 72 -96 69 c -15 -2 -23 3 -27 17 c -4 17 -13 21 -42 21 c -33 0 -37 2 -32 23 c 5 18 -1 25 -36 42 c -23 11 -50 18 -60 17 c -10 -2 -25 6 -35 17 c -9 11 -52 34 -94 51 c -43 18 -80 36 -84 41 c -22 36 -351 146 -654 217 c -176 42 -288 62 -409 73 c -59 5 -142 14 -186 19 c -98 11 -148 10 -435 -5 z m -656 -195 c -6 -6 -41 -19 -79 -30 c -39 -11 -92 -31 -120 -44 c -69 -34 -188 -78 -181 -68 c 5 9 149 82 205 104 c 34 14 152 47 171 47 c 9 1 11 -2 4 -9 z m -77 -66 c -3 -3 -12 -4 -19 -1 c -8 3 -5 6 6 6 c 11 1 17 -2 13 -5 z m -8 -100 c -7 -8 -45 -31 -84 -49 c -118 -57 -235 -166 -354 -334 c -46 -64 -81 -94 -81 -68 c 0 7 15 28 33 47 c 17 19 67 78 109 131 c 85 106 177 186 283 248 c 73 43 119 55 94 25 z m -445 -218 c 11 -83 -1 -125 -50 -170 c -19 -17 -36 -43 -39 -56 c -5 -29 -180 -202 -229 -227 c -18 -9 18 32 92 103 c 67 66 122 126 122 135 c 0 8 16 34 35 57 c 31 36 36 48 36 97 c 1 31 -2 59 -5 62 c -3 4 -17 -4 -31 -17 c -39 -37 -39 -17 0 30 c 19 23 35 46 35 52 c 0 5 6 8 13 6 c 7 -3 16 -34 21 -72 z m -190 -88 c 22 -21 54 -46 69 -56 c 27 -16 33 -47 10 -47 c -7 0 -51 38 -98 84 c -76 76 -83 85 -67 97 c 15 11 19 9 31 -13 c 7 -14 32 -43 55 -65 z m 1653 66 c -3 -3 -12 -4 -19 -1 c -8 3 -5 6 6 6 c 11 1 17 -2 13 -5 z m -1727 -175 c 7 -11 8 -24 4 -27 c -4 -4 -9 -1 -11 6 c -3 6 -16 12 -29 12 c -14 0 -23 -4 -19 -9 c 3 -5 1 -12 -4 -15 c -22 -14 -21 16 1 34 c 30 25 45 25 58 -1 z m 1655 3 c 28 -8 55 -17 60 -21 c 21 -15 214 -78 345 -112 c 85 -21 420 -143 482 -175 c 18 -9 43 -26 55 -37 c 14 -13 45 -23 84 -29 c 61 -8 248 -95 419 -193 c 36 -21 101 -58 145 -83 c 44 -25 110 -67 146 -94 c 37 -26 100 -64 140 -82 c 81 -38 103 -58 231 -216 c 98 -121 330 -462 364 -535 c 29 -61 29 -89 9 -405 c -22 -336 -55 -610 -75 -633 c -8 -10 -12 7 -40 188 c -11 72 -33 184 -49 250 c -16 66 -38 163 -50 215 c -12 52 -31 126 -42 163 c -24 79 -167 372 -213 437 c -18 25 -50 73 -70 108 c -27 45 -55 75 -101 107 c -35 25 -101 87 -147 137 c -81 89 -152 138 -202 138 c -10 0 -69 20 -130 44 c -125 50 -156 60 -156 52 c 0 -10 122 -63 185 -81 c 33 -9 79 -25 102 -36 c 24 -10 46 -19 51 -19 c 9 0 145 -119 150 -131 c 2 -4 49 -48 106 -97 c 112 -97 150 -151 161 -225 c 6 -37 11 -47 26 -47 c 24 0 53 -47 137 -217 c 49 -100 63 -136 54 -145 c -6 -6 -60 -15 -119 -19 c -59 -5 -124 -13 -143 -19 c -45 -13 -100 -13 -100 0 c 0 6 6 13 14 16 c 11 4 13 12 6 28 c -4 13 -4 29 1 39 c 12 21 3 22 -18 1 c -13 -13 -14 -17 -3 -24 c 14 -9 5 -30 -13 -30 c -7 0 -20 12 -30 25 c -14 20 -15 24 -2 19 c 10 -4 15 0 15 10 c 0 9 -4 16 -8 16 c -12 0 -11 32 2 50 c 5 8 7 12 2 8 c -8 -7 -18 -1 -60 37 c -36 32 -89 23 -91 -15 c 0 -10 -89 -113 -147 -173 c -32 -32 -58 -63 -58 -68 c 0 -6 -4 -8 -9 -4 c -5 3 -12 1 -16 -5 c -3 -5 1 -10 9 -10 c 9 0 16 -3 17 -7 c 4 -50 3 -103 -2 -125 c -6 -22 -3 -28 12 -33 c 20 -7 27 -25 9 -25 c -5 0 -7 -7 -4 -15 c 5 -13 -9 -15 -92 -15 c -90 0 -115 10 -59 23 c 11 3 -1 5 -27 6 c -109 3 -39 29 86 32 c 51 2 51 2 11 8 c -38 6 -40 8 -47 51 c -5 25 -9 72 -11 105 l -2 60 l -48 2 c -54 2 -80 19 -185 122 c -81 80 -123 110 -262 186 c -58 31 -121 68 -140 81 c -50 33 -97 41 -345 60 c -183 14 -244 15 -365 6 c -216 -17 -347 -52 -544 -146 c -166 -79 -202 -95 -230 -100 c -16 -3 -34 -13 -40 -22 c -12 -15 -14 -15 -34 2 c -26 22 -29 44 -6 44 c 8 0 12 -4 9 -10 c -3 -5 0 -10 7 -10 c 7 0 19 9 25 20 c 10 16 10 18 -1 14 c -7 -3 -16 2 -20 11 c -7 19 1 38 13 31 c 9 -6 45 53 37 61 c -3 4 1 15 11 25 c 9 10 13 21 9 26 c -4 4 -14 -1 -21 -12 c -8 -10 -19 -16 -26 -14 c -8 3 -4 12 12 27 l 24 23 l -37 -4 c -33 -3 -36 -2 -26 15 c 8 16 7 17 -10 8 c -10 -5 -24 -17 -32 -25 c -16 -20 -31 -21 -24 -1 c 5 11 -2 15 -27 15 l -34 0 l 33 20 c 17 11 32 24 32 29 c 0 15 -29 21 -42 8 c -7 -7 -26 -21 -42 -31 c -28 -18 -29 -18 -49 2 c -19 20 -19 22 -3 46 c 14 23 14 26 1 26 c -8 0 -15 5 -15 10 c 0 6 4 10 9 10 c 5 0 11 10 14 22 c 4 12 9 19 13 15 c 9 -9 84 62 84 78 c 0 7 9 20 20 30 c 12 10 18 25 16 32 c -3 7 -1 13 4 13 c 6 0 10 4 10 10 c 0 11 -35 8 -46 -3 c -13 -13 -34 -7 -34 9 c 0 9 6 14 13 11 c 7 -3 13 5 14 21 c 0 14 9 31 18 38 c 14 11 21 27 24 57 c 1 4 7 7 14 7 c 8 0 12 13 12 35 c -1 20 2 38 7 41 c 4 3 8 12 8 21 c 0 9 7 24 15 33 c 13 15 13 19 -6 38 c -11 12 -18 26 -15 31 c 3 5 50 12 103 15 c 199 14 265 24 279 43 c 9 12 13 13 14 5 c 0 -7 5 -10 10 -7 c 6 4 8 10 6 14 c -3 4 -1 13 5 21 c 7 13 9 12 9 -1 c 0 -22 26 -44 35 -29 c 3 5 -1 13 -10 16 c -9 4 -14 13 -11 21 c 5 13 -11 52 -26 63 c -9 7 -5 43 6 51 c 15 11 -24 58 -42 52 c -15 -6 -15 -5 -3 10 c 7 9 20 17 29 17 c 8 0 13 3 9 6 c -8 9 -44 -5 -64 -24 c -16 -16 -16 -16 -10 2 c 5 12 3 22 -5 27 c -9 6 -9 11 0 22 c 21 25 -67 14 -93 -11 c -13 -12 -27 -22 -32 -22 c -6 0 -22 -11 -37 -25 c -15 -14 -31 -25 -37 -25 c -5 0 -9 -5 -9 -12 c 0 -13 -107 -118 -120 -118 c -11 0 -2 29 16 50 c 50 59 73 80 84 80 c 7 0 10 6 7 14 c -3 7 0 19 6 25 c 6 6 8 11 3 11 c -8 0 42 48 55 52 c 6 2 11 14 12 28 c 1 14 12 33 24 43 c 13 10 28 28 34 39 c 10 19 9 20 -10 15 c -12 -3 -21 0 -21 6 c 1 14 30 55 30 42 c 0 -5 13 5 30 23 c 16 18 35 30 40 27 c 6 -3 13 1 16 9 c 3 9 14 16 24 16 c 10 0 20 6 23 14 c 6 16 81 56 105 56 c 10 0 22 4 28 8 c 14 14 121 54 178 68 c 65 16 147 15 211 -4 z m -2051 -222 c 2 -25 2 -36 -1 -25 c -2 11 -8 35 -13 54 c -6 22 -6 31 0 25 c 6 -6 12 -30 14 -54 z m 566 55 c 0 -2 -10 -9 -22 -15 c -22 -11 -22 -10 -4 4 c 21 17 26 19 26 11 z m -380 -20 c 0 -3 -21 -29 -47 -58 c -27 -29 -56 -63 -66 -77 l -17 -25 l 14 31 c 29 61 116 158 116 129 z m 700 -69 c 0 -2 -51 -37 -112 -77 c -62 -40 -165 -109 -228 -154 c -63 -46 -126 -88 -140 -94 l -25 -12 l 25 21 c 73 62 222 168 336 239 c 120 74 144 87 144 77 z m 470 0 c 0 -2 -7 -7 -16 -10 c -8 -3 -12 -2 -9 4 c 6 10 25 14 25 6 z m -980 -30 c 0 -2 -25 -20 -56 -40 c -31 -21 -53 -33 -49 -26 c 4 6 28 24 53 40 c 49 31 52 32 52 26 z m -345 -115 c -4 -9 -9 -31 -12 -49 c -3 -18 -10 -35 -15 -38 c -6 -4 -6 9 -2 33 c 5 21 8 48 9 59 c 0 13 5 20 13 16 c 8 -2 10 -12 7 -21 z m -130 9 c 3 -5 4 -10 1 -10 c -3 0 -28 -9 -56 -20 c -27 -11 -50 -15 -50 -10 c 0 6 9 10 19 10 c 11 0 23 5 26 10 c 4 7 -3 8 -22 4 c -25 -7 -27 -6 -14 9 c 15 19 86 24 96 7 z m 55 -120 c 0 -5 -2 -10 -4 -10 c -3 0 -8 5 -11 10 c -3 6 -1 10 4 10 c 6 0 11 -4 11 -10 z m -174 -42 c -20 -10 -41 -16 -46 -13 c -6 3 -16 3 -22 -2 c -19 -11 -48 -14 -48 -4 c 0 10 66 39 100 44 c 47 6 54 -6 16 -25 z m 202 13 c -14 -11 -44 -46 -68 -78 c -76 -101 -79 -96 -8 13 c 36 53 64 79 92 83 c 5 0 -2 -8 -16 -18 z m 1577 -61 c 3 -5 1 -10 -4 -10 c -6 0 -11 5 -11 10 c 0 6 2 10 4 10 c 3 0 8 -4 11 -10 z m -1715 -120 c -6 -11 -13 -20 -16 -20 c -2 0 0 9 6 20 c 6 11 13 20 16 20 c 2 0 0 -9 -6 -20 z m 251 -147 c -23 -31 -49 -84 -60 -118 c -11 -38 -49 -110 -98 -186 c -44 -69 -89 -141 -98 -160 c -46 -88 -249 -614 -270 -699 c -46 -187 -64 -246 -100 -323 c -37 -80 -38 -87 -65 -352 c -6 -60 -18 -123 -26 -139 c -19 -40 -19 -136 1 -136 c 16 0 16 2 45 -160 c 59 -320 169 -695 269 -920 c 38 -84 51 -105 71 -110 c 17 -4 21 -8 12 -14 c -17 -10 -15 -79 3 -124 c 27 -62 75 -130 108 -151 c 18 -11 29 -21 24 -21 c -12 0 27 -69 86 -151 c 141 -198 395 -456 542 -553 c 50 -33 122 -80 160 -106 c 99 -68 163 -103 220 -124 c 61 -23 331 -155 365 -179 c 92 -65 -191 53 -313 130 c -21 13 -93 49 -159 78 c -143 64 -188 93 -328 210 c -196 164 -383 353 -477 480 c -214 287 -295 435 -274 495 c 7 22 6 32 -4 40 c -7 6 -30 52 -50 103 c -20 51 -55 126 -77 167 c -49 93 -78 179 -129 390 c -22 91 -58 221 -81 290 c -50 152 -59 257 -34 401 c 9 52 20 146 26 210 c 9 121 12 132 98 354 c 28 72 57 168 65 215 c 18 103 70 244 184 495 c 115 254 147 317 204 400 c 26 39 58 97 70 130 c 25 68 39 93 87 153 c 48 61 50 52 3 -15 z m -412 -12 c -20 -37 -49 -61 -49 -43 c 0 5 14 30 32 58 c 36 57 51 44 17 -15 z m 51 10 c -5 -11 -15 -23 -21 -27 c -6 -3 -3 5 6 20 c 20 30 30 35 15 7 z m -89 -199 c -17 -53 -38 -108 -47 -122 c -10 -17 -13 -18 -8 -5 c 3 11 17 50 30 87 c 12 36 26 84 29 105 c 10 56 17 73 22 50 c 3 -10 -9 -62 -26 -115 z m -472 -233 c 13 -39 13 -39 1 -39 c -5 0 -10 6 -10 14 c 0 7 -7 19 -15 26 c -8 7 -12 16 -9 21 c 10 17 22 9 33 -22 z m 372 8 c -10 -9 -11 -8 -5 6 c 3 10 9 15 12 12 c 3 -3 0 -11 -7 -18 z m -21 -37 c -6 -11 -13 -20 -16 -20 c -2 0 0 9 6 20 c 6 11 13 20 16 20 c 2 0 0 -9 -6 -20 z m -295 -109 c 35 -72 37 -82 26 -109 c -15 -37 -61 -83 -61 -61 c 0 8 7 25 16 37 c 11 17 14 35 10 65 c -3 23 -7 50 -8 60 c -1 9 -6 17 -11 17 c -4 0 -5 5 -1 12 c 4 6 0 16 -8 22 c -19 15 -31 47 -14 40 c 7 -3 30 -40 51 -83 z m 259 52 c -10 -16 -55 -100 -101 -188 c -45 -88 -83 -156 -83 -152 c 0 14 99 219 132 272 c 17 27 37 60 45 73 c 7 12 16 22 19 22 c 4 0 -2 -12 -12 -27 z m -124 -4 c 0 -5 -9 -9 -20 -9 c -22 0 -27 16 -7 23 c 15 5 27 -1 27 -14 z m 1711 -42 c -13 -13 -26 -3 -16 12 c 3 6 11 8 17 5 c 6 -4 6 -10 -1 -17 z m -1615 -163 c -19 -38 -35 -66 -36 -62 c 0 11 63 138 68 134 c 2 -2 -13 -35 -32 -72 z m -342 -41 c -7 -16 -14 -44 -15 -63 c 0 -19 -7 -57 -14 -85 c -11 -45 -13 -47 -14 -17 c 0 17 -6 32 -12 32 c -8 0 -8 4 -1 13 c 9 11 19 44 36 120 c 4 15 13 27 21 27 c 12 0 12 -4 -1 -27 z m 4606 17 c 0 -5 -4 -10 -10 -10 c -5 0 -10 5 -10 10 c 0 6 5 10 10 10 c 6 0 10 -4 10 -10 z m -2607 -25 c -3 -8 -9 -15 -14 -15 c -10 0 -12 24 -3 33 c 11 11 24 -3 17 -18 z m -1702 -52 c -12 -20 -14 -14 -5 12 c 4 9 9 14 11 11 c 3 -2 0 -13 -6 -23 z m 1075 -55 c 27 -13 39 -45 31 -86 c -3 -15 0 -35 8 -45 c 7 -10 16 -42 20 -70 c 4 -29 14 -64 21 -79 c 8 -15 14 -29 14 -32 c 0 -3 -63 -5 -140 -3 c -174 3 -187 23 -20 31 c 49 3 55 5 61 29 c 5 20 4 27 -7 27 c -17 0 -18 12 -2 28 c 9 9 9 12 0 12 c -7 0 -12 -4 -12 -10 c 0 -5 -8 -10 -18 -10 c -11 0 -18 7 -18 21 c 0 17 5 20 28 15 l 29 -6 l -7 57 c -8 76 -18 95 -48 87 c -29 -7 -44 12 -16 21 c 12 4 20 15 20 28 c 0 12 3 33 7 47 c 7 23 8 23 16 -13 c 6 -26 17 -42 33 -49 z m -1210 -45 c -8 -15 -15 -25 -16 -21 c 0 12 23 58 27 54 c 3 -2 -2 -17 -11 -33 z m 1708 -128 c 3 -123 3 -127 -17 -121 c -11 3 -16 1 -11 -4 c 5 -4 18 -10 28 -12 c 11 -1 21 -9 24 -17 c 4 -12 -7 -13 -58 -8 c -35 4 -90 7 -122 7 c -37 0 -57 4 -53 10 c 3 6 39 10 78 10 c 48 0 67 3 58 9 c -12 8 -10 11 11 16 c 23 6 25 10 23 53 c -2 26 -4 55 -4 65 c -1 26 -20 21 -27 -8 c -7 -27 -24 -34 -24 -11 c 0 16 26 46 41 46 c 5 0 9 4 9 9 c 0 5 -10 7 -22 4 c -21 -4 -22 -3 -5 10 c 23 19 22 37 -2 37 c -30 0 -51 11 -51 27 c 0 11 12 13 60 10 l 60 -4 l 4 -128 z m 2825 105 c 15 -7 19 -28 25 -111 c 9 -126 8 -121 26 -136 c 13 -12 13 -14 -3 -24 c -16 -10 -17 -13 -4 -27 c 11 -13 16 -70 21 -267 c 3 -137 7 -262 9 -277 c 4 -27 3 -28 -44 -28 c -54 0 -69 15 -69 68 c 0 16 -3 32 -6 35 c -10 10 -13 67 -4 72 c 10 6 22 -24 14 -36 c -3 -5 0 -9 5 -9 c 6 0 11 17 11 38 c 0 36 -3 39 -37 50 l -38 11 l 35 -1 c 74 -2 78 1 35 27 l -40 25 l 33 6 c 39 8 40 17 5 34 l -28 13 l 28 11 c 33 12 35 24 5 31 c -30 8 -36 55 -7 55 c 13 0 19 7 19 23 c 0 18 -2 19 -10 7 c -6 -9 -10 -10 -10 -3 c 0 6 -7 19 -16 27 c -14 15 -14 16 0 16 c 9 0 16 6 16 14 c 0 8 9 18 21 21 c 31 10 17 30 -24 33 c -51 4 -47 22 6 23 c 46 2 34 4 -82 15 c -70 6 -67 24 4 24 l 39 0 l -23 16 l -24 17 l 29 13 c 16 7 23 13 17 13 c -9 1 -10 8 -3 26 c 5 14 7 31 4 39 c -3 8 -1 17 5 20 c 6 4 4 14 -7 26 c -42 47 -44 50 -32 65 c 14 17 72 20 99 5 z m -4596 -128 c -25 -62 -48 -111 -49 -109 c -3 3 29 86 83 215 c 3 7 7 11 9 9 c 2 -1 -18 -53 -43 -115 z m -146 76 c -3 -8 -6 -5 -6 6 c -1 11 2 17 5 13 c 3 -3 4 -12 1 -19 z m 3083 2 c 0 -5 -4 -10 -10 -10 c -5 0 -10 5 -10 10 c 0 6 5 10 10 10 c 6 0 10 -4 10 -10 z m 1146 -87 c -11 -11 -19 6 -11 24 c 8 17 8 17 12 0 c 3 -10 2 -21 -1 -24 z m -4260 -14 c -18 -43 -43 -141 -50 -199 c -4 -25 -11 -58 -16 -75 c -13 -40 -4 69 12 140 c 12 55 58 178 64 172 c 3 -2 -2 -19 -10 -38 z m 3218 10 c 105 -39 245 -159 285 -244 c 25 -54 36 -142 27 -216 c -10 -81 -12 -82 -87 -63 c -38 9 -133 19 -235 23 l -170 6 l -43 32 c -81 59 -136 158 -128 227 c 6 46 37 121 76 181 c 14 22 26 42 27 43 c 2 2 20 10 41 17 c 57 21 144 18 207 -6 z m -1851 -4 c -3 -9 -8 -14 -10 -11 c -3 3 -2 9 2 15 c 9 16 15 13 8 -4 z m 504 -27 c -3 -7 -5 -2 -5 12 c 0 14 2 19 5 13 c 2 -7 2 -19 0 -25 z m -461 -3 c 13 -13 13 -15 1 -15 c -8 0 -17 7 -21 15 c -3 8 -3 15 0 15 c 3 0 12 -7 20 -15 z m 1469 -28 c -108 -79 -181 -177 -204 -274 c -7 -28 -9 -32 -10 -13 c -1 36 41 131 83 189 c 39 53 147 141 174 141 c 9 0 -11 -20 -43 -43 z m 2770 -14 c 17 -41 48 -203 40 -211 c -3 -3 -15 5 -26 17 c -16 17 -20 30 -15 52 c 4 22 2 29 -9 29 c -18 0 -20 20 -2 21 c 10 0 10 2 0 6 c -7 2 -13 11 -13 19 c 0 8 6 14 13 14 c 8 0 8 3 -2 9 c -15 10 -23 81 -9 81 c 4 0 15 -17 23 -37 z m -5810 -35 c -8 -67 -14 -139 -14 -183 c -1 -23 -5 -35 -9 -28 c -12 19 10 253 24 253 c 2 0 1 -19 -1 -42 z m 367 -130 c -28 -84 -57 -189 -65 -233 c -50 -264 -50 -264 -44 -404 c 4 -75 13 -174 21 -221 c 8 -47 18 -103 21 -125 l 5 -40 l -16 35 c -20 44 -51 184 -60 275 c -4 39 -12 73 -18 77 c -6 4 -48 8 -93 8 l -83 0 l 0 -27 c 2 -117 21 -274 39 -320 c 29 -73 16 -66 -20 10 c -17 38 -35 100 -43 153 l -14 89 l -3 -70 c -1 -38 -2 -122 -1 -185 l 1 -115 l -14 120 c -7 66 -18 188 -24 271 c -6 83 -13 159 -17 168 c -13 33 16 15 30 -19 l 15 -35 l 105 0 c 113 0 136 -4 136 -26 c 0 -8 5 -14 10 -14 c 6 0 10 35 10 84 c 0 168 50 397 142 643 c 42 114 30 56 -20 -99 z m -98 90 c -24 -47 -86 -148 -91 -148 c -4 0 30 65 86 161 c 22 38 26 28 5 -13 z m 1409 -26 c 2 -21 1 -41 -3 -45 c -9 -10 -23 40 -15 52 c 3 5 -2 11 -10 15 c -22 8 -18 25 4 19 c 13 -3 20 -16 24 -41 z m -1857 -189 c -14 -98 -27 -191 -29 -208 c -3 -16 -3 -3 -2 30 c 3 81 49 406 53 378 c 2 -12 -8 -102 -22 -200 z m 2302 -448 c 1 -341 0 -630 -3 -642 c -3 -13 -10 -23 -15 -23 c -10 0 -32 69 -25 80 c 2 3 5 43 6 88 c 1 45 7 93 14 106 c 12 23 11 24 -22 31 c -32 6 -34 8 -20 23 c 8 9 17 33 21 53 c 5 31 3 37 -16 47 l -23 11 l 23 7 c 15 4 21 12 18 21 c -3 8 -6 21 -6 28 c 0 8 -12 20 -27 27 c -29 14 -47 53 -20 42 c 8 -3 17 2 20 10 c 4 9 13 13 22 10 c 9 -4 15 0 15 9 c 0 9 -11 17 -27 19 l -28 4 l 25 11 l 25 12 l -27 0 c -26 1 -28 4 -28 39 c 0 21 5 43 12 50 c 9 9 7 13 -6 18 c -12 5 -14 10 -6 19 c 8 10 2 14 -25 19 c -37 7 -49 26 -16 26 c 24 0 54 46 48 72 c -5 16 -2 19 13 15 c 10 -3 21 1 24 9 c 3 8 0 13 -6 11 c -7 -1 -14 7 -16 17 c -3 15 0 18 17 13 c 12 -3 21 -1 21 5 c 0 5 -9 12 -19 15 c -32 8 -38 101 -7 128 c 6 6 11 15 11 20 c 1 33 17 173 22 189 c 5 19 6 19 17 0 c 7 -13 12 -205 14 -639 z m 2406 489 c -1 -167 -6 -193 -29 -174 c -11 9 -15 9 -15 1 c 0 -7 -5 -9 -11 -6 c -10 7 -11 184 -1 288 c 4 45 6 48 31 45 l 26 -3 l -1 -151 z m 64 91 c 2 -28 10 -58 20 -68 c 15 -17 15 -17 -4 -11 c -15 6 -17 5 -8 -7 c 7 -8 8 -22 3 -34 c -11 -29 -11 -35 6 -35 c 12 0 12 -5 0 -39 c -7 -22 -11 -42 -8 -45 c 7 -7 10 -71 17 -391 c 4 -143 9 -270 12 -282 c 8 -29 -19 -41 -41 -20 c -20 21 -19 47 2 47 c 15 0 14 2 -3 15 c -10 8 -28 15 -39 15 c -17 1 -16 3 8 16 c 32 17 27 34 -11 35 l -27 0 l 25 11 c 24 10 24 10 5 18 c -11 5 -39 9 -62 9 c -66 1 -58 16 10 19 c 89 5 92 13 11 34 c -28 7 -51 18 -52 23 c -2 14 69 10 78 -5 c 5 -8 9 -4 13 11 c 8 29 -3 36 -65 44 c -75 11 -67 25 14 25 c 80 0 78 14 -3 25 c -26 4 -56 13 -66 22 c -16 13 -11 14 50 9 c 42 -3 66 -2 62 4 c -3 6 -14 10 -24 10 c -9 0 -26 7 -37 15 c -17 13 -17 14 -2 15 c 27 0 29 15 7 39 c -12 12 -19 25 -16 28 c 3 2 -1 22 -8 44 c -15 43 -20 38 58 54 c 9 2 24 -3 31 -11 c 12 -12 15 -10 21 16 c 4 17 12 30 18 30 c 6 0 1 7 -11 16 c -21 15 -22 21 -22 185 c 0 157 1 170 18 167 c 13 -2 18 -15 20 -53 z m -2931 -27 c -3 -8 -6 -5 -6 6 c -1 11 2 17 5 13 c 3 -3 4 -12 1 -19 z m -23 -40 c -1 -24 1 -59 6 -78 l 8 -35 l 1 35 c 1 24 8 39 21 48 c 19 12 20 9 22 -50 c 1 -35 2 -79 2 -98 c -1 -19 -2 -131 -4 -248 c -3 -207 -3 -212 -21 -196 c -11 10 -17 20 -14 23 c 3 3 -5 10 -17 17 l -23 12 l 27 11 c 22 8 26 15 23 43 c -2 18 -6 40 -10 49 c -3 10 -1 20 5 24 c 8 5 5 11 -7 20 c -17 13 -17 14 0 33 c 16 17 16 23 6 41 c -8 12 -17 17 -24 11 c -6 -5 -17 -5 -25 0 c -10 7 -11 10 -2 10 c 6 0 12 6 12 14 c 0 8 7 16 15 20 c 18 7 20 36 2 36 c -14 0 -40 97 -30 113 c 4 6 6 51 4 99 c -2 70 1 88 12 88 c 10 0 13 -12 11 -42 z m 2783 10 c -3 -8 -6 -5 -6 6 c -1 11 2 17 5 13 c 3 -3 4 -12 1 -19 z m 1413 -8 c 0 -5 5 -9 12 -7 c 6 1 13 -14 15 -35 c 4 -35 2 -38 -21 -38 c -14 0 -26 4 -26 10 c 0 5 7 7 16 3 c 12 -4 15 -2 12 8 c -3 8 -14 14 -25 14 c -12 0 -25 3 -29 8 c -4 4 -2 7 4 7 c 7 0 12 9 12 20 c 0 11 7 20 15 20 c 8 0 15 -4 15 -10 z m -5721 -120 c -13 -22 -36 -55 -51 -73 c -27 -31 -28 -31 -25 -7 c 2 19 80 117 95 120 c 2 0 -7 -18 -19 -40 z m -268 -115 c -9 -38 -10 -37 -9 25 c 2 89 12 131 16 65 c 1 -27 -2 -68 -7 -90 z m 377 83 c -6 -18 -28 -21 -28 -4 c 0 9 7 16 16 16 c 9 0 14 -5 12 -12 z m 3333 -128 c 56 -11 112 -30 106 -37 c -2 -2 -46 3 -98 11 c -52 8 -116 17 -143 20 c -27 3 -51 8 -54 11 c -9 9 133 5 189 -5 z m 245 -67 c -10 -10 -19 5 -10 18 c 6 11 8 11 12 0 c 2 -7 1 -15 -2 -18 z m -379 -60 c -2 -16 -4 -3 -4 27 c 0 30 2 43 4 28 c 2 -16 2 -40 0 -55 z m 153 67 c 0 -6 -7 -27 -15 -47 c -8 -19 -15 -44 -15 -54 c 0 -18 -17 -35 -26 -27 c -2 3 3 21 11 41 c 8 21 12 37 8 37 c -4 0 -2 5 5 12 c 7 7 12 20 12 30 c 0 10 5 18 10 18 c 6 0 10 -5 10 -10 z m 1301 -2 c -1 -5 -1 -26 -1 -49 c 0 -28 -4 -39 -12 -36 c -7 2 -12 14 -10 26 c 2 12 -2 28 -8 36 c -7 8 -9 19 -5 25 c 7 12 36 10 36 -2 z m -1541 -2 c 0 -3 -4 -8 -10 -11 c -5 -3 -10 -1 -10 4 c 0 6 5 11 10 11 c 6 0 10 -2 10 -4 z m 60 -3 c 0 -5 -5 -15 -10 -23 c -8 -12 -10 -11 -10 8 c 0 12 5 22 10 22 c 6 0 10 -3 10 -7 z m -3600 -313 c 36 -412 97 -677 221 -972 c 27 -65 65 -166 83 -225 c 40 -130 62 -176 132 -269 c 30 -39 60 -82 66 -95 c 20 -37 77 -118 125 -178 c 50 -61 98 -139 90 -147 c -5 -6 -96 114 -154 203 c -22 35 -43 60 -46 57 c -6 -6 -119 161 -151 225 c -38 74 -140 316 -189 448 c -58 154 -116 385 -157 623 c -29 166 -33 209 -35 410 c -1 124 -1 185 1 135 c 2 -49 8 -146 14 -215 z m 2906 275 c 9 -14 14 -32 10 -40 c -3 -9 -2 -13 4 -10 c 6 3 10 1 10 -4 c 0 -15 -23 -14 -38 1 c -9 9 -12 9 -12 -2 c 0 -13 -2 -13 -10 0 c -6 10 -10 11 -10 3 c 0 -7 -4 -13 -8 -13 c -5 0 -4 20 2 45 c 12 51 28 57 52 20 z m 1149 17 l 40 -7 l 5 -59 l 5 -60 l 105 -22 c 58 -12 118 -27 134 -34 l 29 -11 l -6 -207 c -4 -114 -10 -258 -13 -319 l -7 -113 l 187 0 l 187 0 l -26 34 c -28 37 -22 50 32 65 c 29 9 27 11 -24 27 c -27 8 -11 31 29 45 l 42 14 l -34 10 c -74 22 -76 45 -4 45 c 80 0 48 29 -41 37 c -77 6 -80 23 -3 23 c 36 0 80 3 98 6 l 32 7 l -7 -149 c -4 -82 -9 -152 -11 -156 c -2 -3 133 -5 301 -2 c 293 3 355 -1 355 -26 c 0 -7 -625 -10 -1995 -9 c -1097 0 -1999 -2 -2005 -6 c -7 -4 -7 0 1 13 c 12 19 25 20 462 21 c 248 1 453 4 457 6 c 3 2 93 5 200 6 c 107 1 218 4 247 7 c 51 5 51 5 41 31 c -5 14 -12 74 -15 134 c -4 68 -10 107 -17 107 c -6 0 -28 -5 -49 -11 l -38 -10 l 1 -82 c 2 -129 1 -157 -8 -157 c -9 0 -21 172 -25 345 l -2 100 l -39 -2 c -56 -4 -65 -15 -64 -86 c 0 -62 13 -87 48 -99 c 8 -3 -2 -7 -22 -9 c -27 -4 -38 -1 -38 8 c 0 9 -16 12 -62 8 l -63 -5 l 60 13 l 60 12 l 3 59 c 2 32 -1 63 -7 69 c -11 11 -101 -10 -101 -24 c 0 -5 -5 -9 -11 -9 c -19 0 -5 45 16 48 c 11 2 37 8 58 13 l 37 10 l 0 74 c 0 84 1 83 -76 60 c -61 -18 -69 -19 -55 -1 c 14 17 196 70 311 91 c 103 18 191 20 750 13 c 239 -3 429 -4 423 -1 c -15 6 -17 33 -3 33 c 6 0 10 13 10 29 c 0 62 13 69 105 53 z m -510 -22 c 3 -6 -1 -7 -9 -4 c -18 7 -21 14 -7 14 c 6 0 13 -4 16 -10 z m 285 6 c 0 -3 -4 -8 -10 -11 c -5 -3 -10 -1 -10 4 c 0 6 5 11 10 11 c 6 0 10 -2 10 -4 z m -1999 -29 c -13 -13 -26 -3 -16 12 c 3 6 11 8 17 5 c 6 -4 6 -10 -1 -17 z m 1775 2 c 3 -6 1 -15 -6 -19 c -7 -4 -10 -15 -7 -24 c 4 -9 2 -16 -3 -16 c -6 0 -10 3 -11 8 c -5 46 -3 62 8 62 c 6 0 15 -5 19 -11 z m 236 -11 c -7 -7 -12 -8 -12 -2 c 0 14 12 26 19 19 c 2 -3 -1 -11 -7 -17 z m -472 2 c 0 -5 -2 -10 -4 -10 c -3 0 -8 5 -11 10 c -3 6 -1 10 4 10 c 6 0 11 -4 11 -10 z m 160 -12 c 0 -19 -2 -20 -10 -8 c -13 19 -13 30 0 30 c 6 0 10 -10 10 -22 z m -43 -20 c -3 -8 -6 -5 -6 6 c -1 11 2 17 5 13 c 3 -3 4 -12 1 -19 z m 391 5 c -2 -10 -11 -19 -20 -21 c -12 -2 -15 2 -11 17 c 7 25 36 28 31 4 z m -3825 -78 c 3 -38 6 -77 8 -85 c 1 -8 1 -76 -1 -150 c -2 -132 -3 -134 -15 -85 c -15 58 -20 415 -6 400 c 5 -6 11 -41 14 -80 z m 3494 63 c -3 -8 -6 -5 -6 6 c -1 11 2 17 5 13 c 3 -3 4 -12 1 -19 z m -1707 -9 c 0 -6 -4 -7 -10 -4 c -5 3 -10 11 -10 16 c 0 6 5 7 10 4 c 6 -3 10 -11 10 -16 z m 1847 5 c -3 -3 -12 -4 -19 -1 c -8 3 -5 6 6 6 c 11 1 17 -2 13 -5 z m 1535 -121 c 5 -138 3 -143 -36 -143 c -49 0 -75 11 -74 29 c 1 9 0 55 0 104 c -2 83 -3 87 -24 88 c -44 1 34 28 84 29 l 46 0 l 4 -107 z m -127 -43 c -6 -9 -9 -9 -16 1 c -10 17 0 34 13 21 c 6 -6 7 -16 3 -22 z m -3195 -51 c 0 -14 -19 -21 -40 -14 c -23 7 -27 25 -5 25 c 8 0 15 5 15 10 c 0 6 -5 10 -11 10 c -5 0 -7 5 -3 12 c 5 8 13 4 26 -11 c 10 -13 18 -27 18 -32 z m 3200 -9 c 0 -11 -4 -20 -10 -20 c -5 0 -10 9 -10 20 c 0 11 5 20 10 20 c 6 0 10 -9 10 -20 z m 124 -77 c 8 -31 -8 -45 -44 -39 c -14 3 -45 8 -70 12 l -45 8 l 55 12 c 30 6 49 12 43 13 c -29 2 -10 21 21 21 c 28 0 35 -4 40 -27 z m 6 -68 c 0 -12 -14 -15 -62 -15 c -35 0 -74 3 -88 7 l -25 7 l 25 7 c 14 4 53 7 88 8 c 49 1 62 -2 62 -14 z m -480 -3 c 0 -4 -9 -13 -21 -20 c -16 -10 -24 -10 -35 -1 c -23 19 -16 29 21 29 c 19 0 35 -3 35 -8 z m 480 -70 l 0 -38 l -77 -2 c -43 -1 -85 3 -93 8 c -11 7 -5 10 25 10 c 51 1 129 10 134 16 c 2 2 -11 4 -30 5 c -19 0 -43 2 -54 3 c -11 2 -51 7 -90 12 l -70 9 l 110 6 c 61 3 118 6 128 7 c 13 2 17 -6 17 -36 z m -3340 -24 c 0 -10 -7 -18 -15 -18 c -11 0 -15 11 -15 37 c 0 35 1 36 15 17 c 8 -10 15 -27 15 -36 z m 2 -53 c -1 -11 -4 -45 -5 -76 c -2 -31 -7 -61 -11 -67 c -4 -6 -2 -21 4 -32 c 10 -18 8 -20 -24 -20 c -19 0 -38 4 -41 10 c -3 6 1 7 9 4 c 11 -4 16 0 16 12 c 2 54 11 171 15 182 c 8 21 40 9 37 -13 z m 3309 9 c 37 -19 31 -28 -21 -29 c -37 -1 -38 -1 -19 16 c 15 13 16 18 7 22 c -7 3 -9 6 -5 6 c 4 1 22 -6 38 -15 z m -119 -33 c -10 -6 -8 -10 10 -15 c 21 -6 21 -7 5 -17 c -13 -8 -21 -6 -33 5 c -18 18 -11 36 14 36 c 13 0 14 -2 4 -9 z m -4696 -76 c 21 -79 97 -247 145 -322 c 23 -34 39 -68 37 -74 c -4 -13 -111 173 -177 310 c -27 56 -41 98 -41 125 c 0 54 17 36 36 -39 z m 1872 47 c 6 -18 -15 -14 -22 4 c -4 10 -1 14 6 12 c 6 -2 14 -10 16 -16 z m 2972 -26 c 0 -25 -3 -28 -22 -22 c -13 3 -29 6 -35 6 c -7 0 -13 5 -13 11 c 0 7 -8 18 -17 25 c -16 11 -11 13 34 11 c 51 -2 53 -3 53 -31 z m -120 -7 c 0 -5 -4 -9 -10 -9 c -5 0 -10 7 -10 16 c 0 8 5 12 10 9 c 6 -3 10 -10 10 -16 z m -4903 -36 c -3 -10 -5 -2 -5 17 c 0 19 2 27 5 18 c 2 -10 2 -26 0 -35 z m 4900 -7 c -1 -6 6 -11 16 -11 c 9 0 17 4 16 10 c -1 13 29 22 62 17 c 26 -4 29 -8 29 -43 c 0 -36 -2 -39 -29 -39 c -17 0 -32 4 -36 10 c -3 5 -11 7 -18 5 c -11 -5 -87 54 -87 67 c 0 3 11 3 25 1 c 13 -3 23 -10 22 -17 z m -4890 -68 c -3 -7 -5 -2 -5 12 c 0 14 2 19 5 13 c 2 -7 2 -19 0 -25 z m 5123 -82 c 0 -3 -4 -8 -10 -11 c -5 -3 -10 -1 -10 4 c 0 6 5 11 10 11 c 6 0 10 -2 10 -4 z m -151 -37 c 19 -42 8 -46 -12 -4 c -9 19 -13 35 -9 35 c 4 0 13 -14 21 -31 z m -489 -19 c -1 -12 -4 -11 -15 4 c -8 10 -12 23 -8 29 c 7 11 23 -12 23 -33 z m 133 8 c -5 -10 -33 10 -33 23 c 0 5 9 4 19 -3 c 11 -7 17 -16 14 -20 z m 77 7 c 0 -8 -4 -15 -10 -15 c -5 0 -10 7 -10 15 c 0 8 5 15 10 15 c 6 0 10 -7 10 -15 z m 190 0 c 10 -12 10 -15 -4 -15 c -9 0 -16 7 -16 15 c 0 8 2 15 4 15 c 2 0 9 -7 16 -15 z m -135 -5 c 3 -5 1 -10 -4 -10 c -6 0 -11 5 -11 10 c 0 6 2 10 4 10 c 3 0 8 -4 11 -10 z m 81 -17 c -7 -7 -26 7 -26 19 c 0 6 6 6 15 -2 c 9 -7 13 -15 11 -17 z m -281 7 c 3 -5 -1 -10 -10 -10 c -9 0 -13 5 -10 10 c 3 6 8 10 10 10 c 2 0 7 -4 10 -10 z m -215 -16 c 0 -2 -7 -4 -15 -4 c -8 0 -15 4 -15 10 c 0 5 7 7 15 4 c 8 -4 15 -8 15 -10 z m -4211 -101 c 1 -18 -3 -33 -9 -33 c -6 0 -10 25 -9 58 c 1 43 3 51 9 32 c 4 -14 8 -40 9 -57 z m 4841 50 c 0 -26 -1 -26 -17 -10 c -16 16 -16 19 -3 27 c 20 13 20 13 20 -17 z m -335 7 c 3 -5 1 -10 -4 -10 c -6 0 -11 5 -11 10 c 0 6 2 10 4 10 c 3 0 8 -4 11 -10 z m 95 -11 c 0 -5 -4 -9 -10 -9 c -5 0 -10 7 -10 16 c 0 8 5 12 10 9 c 6 -3 10 -10 10 -16 z m 70 -39 c 0 -5 -4 -10 -10 -10 c -5 0 -10 5 -10 10 c 0 6 5 10 10 10 c 6 0 10 -4 10 -10 z m 215 -18 c -3 -3 -11 0 -18 7 c -9 10 -8 11 6 5 c 10 -3 15 -9 12 -12 z m -1895 -44 c 0 -8 -12 -12 -32 -11 c -46 2 -48 4 -13 13 c 44 11 45 11 45 -2 z m 2004 -58 c 19 0 38 -4 41 -10 c 3 -5 15 -10 26 -10 c 10 0 19 -5 19 -11 c 0 -7 -10 -9 -24 -7 c -16 3 -27 0 -30 -9 c -3 -8 -19 -19 -36 -24 c -16 -6 -30 -17 -30 -25 c 0 -8 -4 -14 -10 -14 c -5 0 -10 5 -10 11 c 0 5 -4 7 -10 4 c -5 -3 -10 -4 -10 -1 c 0 3 20 17 45 32 c 48 28 52 45 9 36 c -14 -3 -29 0 -33 7 c -6 9 -14 9 -32 1 c -41 -19 -71 -38 -79 -50 c -5 -8 -18 -10 -35 -6 l -28 7 l 33 24 c 22 17 42 23 59 20 c 18 -4 15 -1 -8 8 c -27 10 -31 15 -18 20 c 9 3 19 2 22 -3 c 4 -6 19 -10 35 -10 l 30 0 l -20 33 c -30 49 -24 53 20 13 c 30 -27 49 -36 74 -36 z m -1937 33 c -8 -7 -37 9 -31 19 c 3 5 12 4 20 -3 c 8 -6 13 -14 11 -16 z m -2762 -123 c 51 -123 86 -220 80 -220 c -13 0 -126 262 -140 325 c -11 53 10 15 60 -105 z m 3919 91 c -5 -3 -11 -9 -14 -13 c -3 -3 -14 0 -25 9 c -20 15 -20 15 3 8 c 13 -4 22 -2 22 5 c 0 6 5 8 11 4 c 6 -3 7 -9 3 -13 z m 372 -2 c 3 -6 30 -9 63 -8 c 32 2 66 -2 79 -9 c 20 -11 26 -9 24 9 c -1 3 9 4 21 3 c 12 -1 26 -3 30 -3 c 4 -1 -8 -17 -27 -37 c -19 -20 -41 -34 -48 -31 c -9 4 -8 6 3 6 c 9 1 19 8 23 16 c 4 11 -4 15 -37 15 c -122 1 -143 3 -154 12 c -12 10 -7 38 7 38 c 5 0 12 -5 16 -11 z m -2219 -5 c -3 -3 -12 -4 -19 -1 c -8 3 -5 6 6 6 c 11 1 17 -2 13 -5 z m 583 2 c 0 -2 -15 -6 -34 -8 c -19 -2 -32 0 -30 4 c 5 8 64 12 64 4 z m 455 -6 c 3 -5 -1 -10 -10 -10 c -9 0 -13 5 -10 10 c 3 6 8 10 10 10 c 2 0 7 -4 10 -10 z m 385 0 c 0 -5 -9 -10 -20 -10 c -11 0 -20 5 -20 10 c 0 6 9 10 20 10 c 11 0 20 -4 20 -10 z m 330 6 c 0 -11 -19 -15 -25 -6 c -3 5 1 10 9 10 c 9 0 16 -2 16 -4 z m 401 -15 c 9 0 20 -8 23 -17 c 4 -9 2 -12 -5 -8 c -20 12 -143 13 -150 2 c -6 -9 -11 -9 -22 0 c -8 7 -29 11 -47 10 c -18 -2 -34 2 -37 7 c -3 9 156 13 238 6 z m -2171 -11 c 8 -5 12 -11 10 -14 c -3 -2 -14 2 -24 10 c -22 15 -10 19 14 4 z m 743 -17 c -7 -2 -19 -2 -25 0 c -7 3 -2 5 12 5 c 14 0 19 -2 13 -5 z m 432 -6 c 3 -4 2 -5 -2 -2 c -3 3 -16 -1 -29 -9 c -22 -15 -34 -12 -34 8 c 0 12 57 14 65 3 z m 1405 5 c -8 -4 -15 -14 -15 -22 c 0 -8 -8 -14 -17 -14 c -10 1 -27 2 -38 3 c -32 2 -23 21 9 21 c 17 0 33 5 36 10 c 3 6 14 10 23 9 c 14 0 15 -2 2 -7 z m -1200 -6 c 0 -3 -4 -8 -10 -11 c -5 -3 -10 -1 -10 4 c 0 6 5 11 10 11 c 6 0 10 -2 10 -4 z m 403 -3 c -7 -2 -19 -2 -25 0 c -7 3 -2 5 12 5 c 14 0 19 -2 13 -5 z m -553 -13 c 0 -5 -5 -10 -11 -10 c -5 0 -7 5 -4 10 c 3 6 8 10 11 10 c 2 0 4 -4 4 -10 z m 607 4 c -3 -3 -12 -4 -19 -1 c -8 3 -5 6 6 6 c 11 1 17 -2 13 -5 z m 488 -4 c 3 -5 -1 -10 -10 -10 c -9 0 -13 5 -10 10 c 3 6 8 10 10 10 c 2 0 7 -4 10 -10 z m -695 -20 c 13 -11 19 -20 13 -20 c -5 0 -13 3 -17 8 c -4 4 -22 12 -39 19 c -31 11 -31 12 -6 12 c 14 1 36 -8 49 -19 z m 73 3 c -7 -2 -21 -2 -30 0 c -10 3 -4 5 12 5 c 17 0 24 -2 18 -5 z m 350 -11 c -10 -11 -22 -17 -27 -14 c -5 3 -1 11 9 19 c 27 19 38 16 18 -5 z m 310 -18 c -3 -9 1 -14 12 -14 c 9 0 13 -5 10 -10 c -4 -6 -16 -8 -28 -4 c -31 10 -108 6 -123 -7 c -8 -7 -14 -6 -20 2 c -5 9 -11 7 -21 -6 c -7 -11 -13 -13 -13 -7 c 0 7 0 15 0 20 c 0 4 10 8 22 9 c 114 10 138 16 138 36 c 0 16 3 17 14 7 c 8 -6 12 -18 9 -26 z m -4673 16 c 0 -5 -4 -10 -10 -10 c -5 0 -10 5 -10 10 c 0 6 5 10 10 10 c 6 0 10 -4 10 -10 z m 185 -10 c 8 -7 15 -19 15 -26 c 0 -25 -39 -15 -89 22 c -1 1 0 7 3 12 c 8 13 51 8 71 -8 z m 3190 10 c 3 -6 0 -11 -7 -11 c -7 -1 -26 -3 -43 -5 c -41 -6 -106 6 -83 15 c 29 10 127 11 133 1 z m 1532 -36 c -3 -3 -12 -4 -19 -1 c -8 3 -5 6 6 6 c 11 1 17 -2 13 -5 z m -4863 -20 c 20 -20 21 -35 1 -28 c -8 4 -15 12 -15 19 c 0 8 -10 16 -22 18 c -23 4 -23 4 -1 6 c 12 0 29 -6 37 -15 z m 786 12 c 0 -3 -4 -8 -10 -11 c -5 -3 -10 -1 -10 4 c 0 6 5 11 10 11 c 6 0 10 -2 10 -4 z m 3625 -6 c -3 -5 -22 -10 -41 -10 c -46 0 -37 14 11 18 c 22 1 34 -2 30 -8 z m 350 -12 c 14 -6 5 -7 -28 -4 c -27 2 -54 9 -60 16 c -9 9 -3 10 28 4 c 22 -4 49 -11 60 -16 z m -580 -8 c -3 -5 -10 -10 -16 -10 c -5 0 -9 5 -9 10 c 0 6 7 10 16 10 c 8 0 12 -4 9 -10 z m -210 -10 c 4 -6 -5 -10 -20 -10 c -15 0 -24 4 -20 10 c 3 6 12 10 20 10 c 8 0 17 -4 20 -10 z m -3987 -36 c -10 -10 -28 6 -28 24 c 0 15 1 15 17 -1 c 9 -9 14 -19 11 -23 z m 3432 26 c 0 -5 -9 -10 -20 -10 c -11 0 -20 5 -20 10 c 0 6 9 10 20 10 c 11 0 20 -4 20 -10 z m 490 -5 c 0 -8 -7 -15 -16 -15 c -14 0 -14 3 -4 15 c 7 8 14 15 16 15 c 2 0 4 -7 4 -15 z m -135 -23 c -2 -3 -12 -1 -22 2 c -15 6 -15 9 -3 16 c 13 8 35 -8 25 -18 z m 84 1 c -21 -28 -23 -29 -16 -11 c 3 9 1 19 -6 22 c -7 2 -1 5 12 5 c 21 1 22 -1 10 -16 z m 371 7 c 0 -5 -2 -10 -4 -10 c -3 0 -8 5 -11 10 c -3 6 -1 10 4 10 c 6 0 11 -4 11 -10 z m 45 0 c 3 -5 1 -10 -4 -10 c -6 0 -11 5 -11 10 c 0 6 2 10 4 10 c 3 0 8 -4 11 -10 z m 125 0 c -20 -13 -33 -13 -25 0 c 3 6 14 10 23 10 c 15 0 15 -2 2 -10 z m -4370 -16 c 0 -8 -4 -12 -10 -9 c -5 3 -10 10 -10 16 c 0 5 5 9 10 9 c 6 0 10 -7 10 -16 z m 3785 6 c -3 -5 -1 -10 4 -10 c 6 0 11 -7 11 -16 c 0 -11 -6 -14 -22 -8 c -33 9 -34 12 -12 29 c 23 17 27 18 19 5 z m -3647 -25 c 16 -34 15 -34 -8 -28 c -13 3 -20 14 -20 29 c 0 31 14 31 28 -1 z m -428 -1 c 0 -8 -4 -12 -10 -9 c -5 3 -10 10 -10 16 c 0 5 5 9 10 9 c 6 0 10 -7 10 -16 z m 270 -97 c 0 -86 -17 -59 -22 35 c -5 70 -4 75 9 52 c 7 -15 13 -54 13 -87 z m 2837 107 c -3 -3 -12 -4 -19 -1 c -8 3 -5 6 6 6 c 11 1 17 -2 13 -5 z m 828 -4 c -11 -5 -29 -9 -40 -9 l -20 0 l 20 9 c 11 5 29 9 40 9 l 20 0 l -20 -9 z m 95 -9 c 0 -11 -25 -21 -51 -21 c -19 0 -25 11 -12 23 c 10 10 63 8 63 -2 z m 610 -11 c -8 -5 -22 -10 -30 -10 c -13 0 -13 1 0 10 c 8 5 22 10 30 10 c 13 0 13 -1 0 -10 z m 760 -10 c 8 -5 12 -11 10 -14 c -8 -7 -60 6 -60 15 c 0 12 31 11 50 -1 z m -1713 -26 c -3 -4 -14 -3 -24 0 c -15 6 -15 8 -3 16 c 16 10 39 -4 27 -16 z m 1343 2 c 0 -18 -17 -30 -22 -17 c -2 7 -18 7 -43 1 c -22 -5 -41 -7 -44 -4 c -9 9 10 18 52 25 c 23 3 45 7 50 8 c 4 0 7 -5 7 -13 z m -285 -16 c 17 -7 15 -9 -12 -9 c -17 -1 -33 -5 -35 -11 c -2 -6 -15 -6 -33 -2 c -19 6 -25 11 -17 16 c 7 4 19 5 27 2 c 8 -3 17 -1 20 4 c 7 12 23 12 50 0 z m -1418 -6 c -3 -3 -12 -4 -19 -1 c -8 3 -5 6 6 6 c 11 1 17 -2 13 -5 z m 308 -4 c 3 -5 2 -10 -4 -10 c -5 0 -13 5 -16 10 c -3 6 -2 10 4 10 c 5 0 13 -4 16 -10 z m 1259 -1 c -3 -6 -11 -8 -17 -6 c -7 2 -18 -2 -25 -10 c -15 -15 -32 -17 -32 -5 c 0 5 -15 7 -32 5 c -29 -4 -31 -2 -17 9 c 19 15 133 22 123 7 z m -1434 -15 c 0 -2 -9 -4 -21 -4 c -11 0 -18 4 -14 10 c 5 8 35 3 35 -6 z m -2460 -8 c 0 -3 -4 -8 -10 -11 c -5 -3 -10 -1 -10 4 c 0 6 5 11 10 11 c 6 0 10 -2 10 -4 z m 3277 -2 c -3 -3 -12 -4 -19 -1 c -8 3 -5 6 6 6 c 11 1 17 -2 13 -5 z m -3867 -28 c 0 -3 -4 -8 -10 -11 c -5 -3 -10 -1 -10 4 c 0 6 5 11 10 11 c 6 0 10 -2 10 -4 z m 4080 -6 c 25 -6 56 -13 69 -16 l 24 -5 l -28 -15 c -19 -10 -31 -11 -40 -4 c -7 6 -21 7 -35 2 c -34 -12 -82 -3 -76 15 c 3 8 6 19 6 24 c 0 11 23 11 80 -1 z m 279 6 c -11 -9 -69 -15 -64 -6 c 3 6 20 10 37 10 c 17 0 29 -2 27 -4 z m -109 -16 c 0 -5 -15 -10 -32 -9 c -31 1 -32 1 -8 9 c 35 11 40 11 40 0 z m -4251 -62 c -1 -24 9 -72 20 -108 c 24 -77 24 -73 10 -64 c -20 12 -37 68 -44 142 c -4 47 -3 72 4 72 c 6 0 10 -19 10 -42 z m 4856 12 c 3 -5 0 -10 -9 -10 c -8 0 -16 -5 -18 -10 c -2 -6 -9 -1 -16 10 c -11 18 -10 20 12 20 c 14 0 28 -4 31 -10 z m -648 -6 c -3 -3 -12 -4 -19 -1 c -8 3 -5 6 6 6 c 11 1 17 -2 13 -5 z m 100 -10 c -3 -3 -12 -4 -19 -1 c -8 3 -5 6 6 6 c 11 1 17 -2 13 -5 z m 460 0 c -3 -3 -12 -4 -19 -1 c -8 3 -5 6 6 6 c 11 1 17 -2 13 -5 z m -1492 -14 c -3 -5 -12 -7 -20 -3 c -21 7 -19 13 6 13 c 11 0 18 -4 14 -10 z m 835 0 c 0 -5 -4 -10 -10 -10 c -5 0 -10 5 -10 10 c 0 6 5 10 10 10 c 6 0 10 -4 10 -10 z m -3015 -20 c -3 -5 -36 -9 -73 -9 c -60 2 -63 3 -27 9 c 63 11 107 11 100 0 z m 2425 -56 c 0 -8 -4 -12 -10 -9 c -5 3 -10 10 -10 16 c 0 5 5 9 10 9 c 6 0 10 -7 10 -16 z m 1064 7 c 3 -5 -4 -11 -16 -14 c -25 -7 -33 -3 -23 12 c 8 13 32 14 39 2 z m 56 -11 c -19 -13 -30 -13 -30 0 c 0 6 10 10 23 10 c 18 0 19 -2 7 -10 z m 47 -6 c -3 -3 -12 -4 -19 -1 c -8 3 -5 6 6 6 c 11 1 17 -2 13 -5 z m -387 -14 c -20 -13 -53 -13 -45 0 c 3 6 18 10 33 10 c 21 0 24 -2 12 -10 z m 500 0 c 13 -8 13 -10 -2 -10 c -9 0 -20 5 -23 10 c -8 13 5 13 25 0 z m 140 -11 c 7 -11 10 -23 7 -25 c -6 -6 -37 25 -37 37 c 0 17 19 9 30 -12 z m -4714 -44 c 9 -25 15 -47 13 -49 c -2 -2 -13 20 -25 50 c -12 29 -18 51 -13 49 c 4 -3 15 -26 25 -50 z m 4005 46 c -8 -5 -30 -9 -50 -9 c -28 0 -32 2 -16 9 c 28 11 84 11 66 0 z m 226 3 c -3 -3 -12 -4 -19 -1 c -8 3 -5 6 6 6 c 11 1 17 -2 13 -5 z m -934 -40 c 9 -4 17 -10 17 -15 c 0 -16 -20 -10 -43 12 c -12 12 -15 19 -7 15 c 8 -3 23 -9 33 -12 z m 1497 1 c 16 -19 5 -32 -13 -17 c -8 7 -17 9 -20 5 c -4 -3 -7 1 -7 10 c 0 21 23 22 40 2 z m -249 -32 c 9 -10 4 -13 -27 -14 c -52 -2 -65 1 -87 16 c -16 11 -10 13 42 12 c 38 0 65 -5 72 -14 z m 73 7 c 14 -5 26 -14 26 -20 c 0 -16 -15 -12 -41 10 c -27 22 -22 25 15 10 z m -3444 -10 c -8 -5 -24 -9 -35 -9 c -16 1 -16 2 5 9 c 35 11 48 11 30 0 z m 975 0 c 4 -6 -9 -10 -32 -9 c -38 1 -38 1 -8 9 c 17 4 31 8 32 9 c 1 0 5 -3 8 -9 z m 1265 0 c 0 -5 -12 -10 -26 -10 c -14 0 -23 4 -19 10 c 3 6 15 10 26 10 c 10 0 19 -4 19 -10 z m -1707 -7 c -13 -2 -33 -2 -45 0 c -13 2 -3 4 22 4 c 25 0 35 -2 23 -4 z m 75 0 c -10 -2 -26 -2 -35 0 c -10 3 -2 5 17 5 c 19 0 27 -2 18 -5 z m 59 1 c -3 -3 -12 -4 -19 -1 c -8 3 -5 6 6 6 c 11 1 17 -2 13 -5 z m 206 -1 c -7 -2 -21 -2 -30 0 c -10 3 -4 5 12 5 c 17 0 24 -2 18 -5 z m 187 -3 c 13 -8 13 -10 -2 -10 c -9 0 -20 5 -23 10 c -8 13 5 13 25 0 z m 170 0 c 0 -5 -12 -10 -26 -10 c -14 0 -23 4 -19 10 c 3 6 15 10 26 10 c 10 0 19 -4 19 -10 z m 45 0 c -3 -5 -12 -7 -20 -3 c -21 7 -19 13 6 13 c 11 0 18 -4 14 -10 z m 125 6 c 0 -9 -39 -13 -51 -5 c -10 6 -4 9 19 9 c 17 0 32 -2 32 -4 z m 187 -2 c -3 -3 -12 -4 -19 -1 c -8 3 -5 6 6 6 c 11 1 17 -2 13 -5 z m 116 -1 c -7 -2 -19 -2 -25 0 c -7 3 -2 5 12 5 c 14 0 19 -2 13 -5 z m 180 0 c -7 -2 -21 -2 -30 0 c -10 3 -4 5 12 5 c 17 0 24 -2 18 -5 z m 432 -3 c 4 -7 -3 -8 -22 -4 c -38 9 -42 14 -10 14 c 14 0 29 -5 32 -10 z m 100 -8 c -3 -3 -11 0 -18 7 c -9 10 -8 11 6 5 c 10 -3 15 -9 12 -12 z m -3725 -34 l 23 -33 l -31 29 c -34 31 -37 36 -24 36 c 5 0 19 -15 32 -32 z m 5599 -42 c 28 -30 24 -58 -10 -70 c -21 -7 -33 -4 -58 13 l -31 23 l 21 29 c 25 35 48 37 78 5 z m -5256 -126 c 17 -36 33 -69 36 -75 c 2 -5 -6 -1 -18 9 c -24 21 -25 19 -11 -19 c 7 -17 7 -24 0 -20 c -6 3 -10 13 -10 21 c 0 8 -4 14 -9 14 c -5 0 -28 36 -50 80 c -37 74 -42 97 -13 68 c 9 -9 12 -8 12 8 c 1 19 1 19 16 -1 c 9 -11 30 -49 47 -85 z m 4902 6 c -21 -69 -59 -123 -179 -248 c -61 -64 -134 -141 -161 -170 c -84 -89 -289 -270 -329 -290 c -21 -11 -79 -51 -129 -89 c -85 -65 -163 -107 -409 -222 c -65 -31 -254 -88 -365 -112 c -18 -4 -33 -9 -33 -13 c 0 -3 38 -43 85 -88 l 86 -81 l 55 61 c 30 33 76 94 102 133 c 43 66 68 91 79 79 c 9 -8 -46 -102 -97 -166 c -52 -65 -148 -159 -164 -160 c -4 0 -6 10 -3 23 c 5 18 -7 31 -65 77 c -39 30 -87 70 -106 88 l -35 32 l -76 -15 c -106 -20 -378 -32 -696 -28 c -313 3 -372 6 -515 27 c -196 30 -534 128 -575 167 c -15 14 -3 11 117 -31 c 265 -93 487 -131 850 -146 c 335 -13 867 45 1112 123 c 342 108 655 289 949 549 c 249 220 471 455 491 522 c 4 12 11 22 16 22 c 4 0 2 -20 -5 -44 z m -5065 -76 c -1 -11 -4 -10 -12 5 c -6 11 -20 34 -30 50 c -18 27 -17 27 11 -5 c 17 -19 31 -41 31 -50 z m 5308 9 c 30 -19 28 -29 -8 -29 c -34 0 -90 25 -90 40 c 0 19 34 29 55 16 c 11 -7 30 -19 43 -27 z m -4126 -9 c 36 -10 72 -45 63 -61 c -3 -4 -16 -2 -29 4 c -13 7 -22 15 -20 18 c 2 4 -3 13 -12 20 c -12 10 -20 10 -34 1 c -15 -9 -19 -7 -23 9 c -6 22 3 23 55 9 z m 658 -6 c 46 -10 120 -66 145 -108 c 34 -59 44 -180 20 -261 c -17 -61 -50 -100 -150 -180 l -37 -29 l 30 -27 c 59 -53 118 -59 240 -23 c 41 12 14 -23 -36 -47 c -54 -25 -115 -34 -167 -25 c -42 8 -102 58 -107 89 c -3 20 -10 22 -97 27 l -93 5 l -44 48 c -59 65 -84 137 -84 238 c 0 67 4 90 26 133 c 29 58 85 120 128 143 c 52 27 153 35 226 17 z m 1848 2 c 43 -22 60 -47 67 -101 c 7 -54 -1 -51 -36 12 c -30 55 -115 78 -184 49 c -27 -12 -36 -23 -45 -57 c -25 -92 6 -152 96 -186 c 109 -42 147 -67 171 -113 c 47 -89 22 -177 -61 -216 c -80 -38 -172 -30 -223 18 c -17 16 -25 18 -41 9 c -31 -16 -34 -14 -18 17 c 32 58 31 58 77 19 c 71 -61 140 -59 194 5 c 54 64 12 152 -85 178 c -78 21 -109 38 -139 81 c -74 102 -37 245 74 284 c 52 18 119 19 153 1 z m -1499 -5 c 12 -8 9 -14 -16 -35 c -29 -24 -30 -27 -26 -103 c 9 -204 44 -325 111 -384 c 32 -28 38 -30 106 -28 l 71 3 l 0 255 l 0 256 l -28 13 c -15 7 -25 17 -22 23 c 7 10 104 12 130 3 c 14 -6 13 -9 -6 -30 c -21 -22 -23 -35 -27 -201 c -4 -160 -2 -184 16 -238 c 11 -33 19 -62 17 -66 c -2 -3 -22 -18 -44 -33 c -51 -35 -169 -48 -218 -23 c -77 40 -125 137 -149 297 c -8 52 -18 124 -24 159 c -7 51 -15 71 -41 97 l -32 33 l 54 4 c 104 7 114 7 128 -2 z m 600 1 l 43 -7 l -21 -19 c -20 -18 -21 -28 -21 -257 c 0 -130 3 -244 6 -253 c 4 -11 18 -16 43 -16 c 67 0 65 -9 58 266 c -6 242 -7 249 -28 265 c -22 16 -19 17 75 24 c 173 13 282 -11 343 -77 c 42 -45 73 -128 73 -197 c 0 -96 -16 -138 -80 -202 c -89 -90 -130 -101 -377 -104 c -112 -1 -203 0 -203 3 c 0 2 12 18 26 35 l 26 31 l -7 220 c -3 122 -8 228 -11 237 c -2 8 -20 21 -40 28 c -67 24 -7 38 95 23 z m -1644 -52 c 3 -5 -1 -10 -9 -10 c -8 0 -18 5 -21 10 c -3 6 1 10 9 10 c 8 0 18 -4 21 -10 z m -929 -45 c 3 -22 -23 -18 -29 4 c -3 11 -2 22 1 26 c 8 7 25 -11 28 -30 z m 327 -105 c 27 -36 54 -74 59 -85 c 11 -20 11 -20 -11 0 c -13 11 -38 41 -58 67 c -19 27 -41 48 -49 48 c -13 0 -110 -40 -148 -62 c -16 -8 -22 -7 -33 8 c -18 24 -4 38 73 69 c 89 38 110 32 167 -45 z m -304 -72 c 36 -33 99 -85 138 -115 c 40 -29 78 -63 84 -74 c 6 -12 40 -55 76 -96 c 80 -92 49 -80 -36 14 c -34 38 -79 81 -99 96 c -20 15 -82 70 -137 121 c -55 52 -111 104 -125 115 l -25 21 l 29 -10 c 15 -6 58 -38 95 -72 z m 4733 35 c 23 -21 23 -40 -1 -53 c -30 -15 -49 -12 -56 10 c -16 50 20 77 57 43 z m -4520 -105 c 10 -10 23 -18 28 -18 c 6 0 10 -5 10 -10 c 0 -7 -6 -8 -15 -3 c -27 16 -124 98 -125 106 c 0 9 70 -43 102 -75 z m 136 -112 c 2 -10 -3 -16 -16 -16 c -23 0 -46 25 -38 39 c 9 14 50 -3 54 -23 z m 282 -116 c 0 -5 -2 -10 -4 -10 c -3 0 -8 5 -11 10 c -3 6 -1 10 4 10 c 6 0 11 -4 11 -10 z m 30 -10 c 0 -5 13 -10 29 -10 c 17 0 33 -4 36 -10 c 3 -5 16 -10 28 -10 c 12 0 31 -8 42 -16 l 20 -16 l -20 6 c -11 3 -46 12 -78 20 c -31 8 -62 18 -67 21 c -13 8 -13 25 0 25 c 6 0 10 -4 10 -10 z m -465 -70 c 3 -5 2 -10 -4 -10 c -5 0 -13 5 -16 10 c -3 6 -2 10 4 10 c 5 0 13 -4 16 -10 z m 54 -35 c 9 -9 32 -28 52 -43 c 66 -49 169 -134 169 -138 c 0 -7 -82 47 -140 92 c -94 74 -126 103 -111 104 c 8 0 21 -7 30 -15 z m 647 -16 c 5 -8 1 -8 -13 0 c -27 14 -43 1 -87 -74 c -42 -71 -47 -66 -10 10 c 37 75 60 98 84 85 c 10 -6 22 -15 26 -21 z m -401 -9 c 3 -5 2 -10 -4 -10 c -5 0 -13 5 -16 10 c -3 6 -2 10 4 10 c 5 0 13 -4 16 -10 z m 436 -17 c 13 -16 12 -17 -3 -4 c -10 7 -18 15 -18 17 c 0 8 8 3 21 -13 z m 3260 -25 c -6 -7 -21 -26 -34 -42 c -13 -16 -30 -27 -38 -24 c -10 3 -1 17 30 47 c 24 23 46 40 48 37 c 3 -3 0 -11 -6 -18 z m 154 -26 c 0 -18 -20 -15 -23 4 c -3 10 1 15 10 12 c 7 -3 13 -10 13 -16 z m -3305 -18 c 0 -2 -9 0 -20 6 c -11 6 -20 13 -20 16 c 0 2 9 0 20 -6 c 11 -6 20 -13 20 -16 z m 3096 -49 c 9 -8 24 -15 35 -15 c 25 0 24 -22 -1 -45 c -27 -24 -45 -14 -58 34 c -11 44 -2 53 24 26 z m -3451 -164 c -6 -5 -142 81 -180 114 c -16 14 18 -5 77 -42 c 59 -37 105 -69 103 -72 z m 412 25 c 4 -29 1 -36 -12 -36 c -11 0 -15 5 -11 16 c 3 8 -1 31 -9 51 c -20 47 -19 51 6 27 c 11 -12 23 -38 26 -58 z m 2020 -152 c 41 -44 66 -91 59 -110 c -7 -17 -66 -19 -66 -1 c 0 6 -14 41 -30 75 c -35 75 -35 72 -14 72 c 9 0 32 -16 51 -36 z m -106 -7 c -5 -13 -38 -38 -84 -63 c -72 -39 -167 -77 -175 -69 c -7 7 93 74 166 112 c 41 21 76 41 79 46 c 10 16 22 -5 14 -26 z m -1566 11 c 16 -7 37 -33 52 -62 c 14 -28 34 -63 44 -78 c 18 -24 26 -68 13 -68 c -27 0 -50 29 -135 173 c -30 50 -24 58 26 35 z m 383 -17 c 20 -11 55 -39 77 -63 c 25 -27 31 -36 15 -25 c -14 9 -55 35 -92 58 c -38 23 -68 43 -68 45 c 0 10 34 2 68 -15 z m 257 -81 c -27 -12 -35 -12 -35 0 c 0 6 12 10 28 9 c 24 0 25 -1 7 -9 z m 428 -12 c -3 -15 6 -34 25 -55 c 40 -43 28 -50 -20 -11 c -25 19 -37 36 -33 45 c 4 12 -1 14 -28 9 c -18 -3 -36 -3 -40 0 c -15 15 18 34 58 34 c 38 0 42 -2 38 -22 z m 214 -185 c -20 -2 -52 -2 -70 0 c -17 2 0 4 38 4 c 39 0 53 -2 32 -4 z" stroke-linecap="round"/>
</g>
		<g transform="matrix(0.1333 0 0 -0.1333 52.4215 -310.8717)">
<path style="stroke: none; stroke-width: 1; stroke-dasharray: none; stroke-linecap: butt; stroke-dashoffset: 0; stroke-linejoin: miter; stroke-miterlimit: 4; is-custom-font: none; font-file-url: none; fill: rgb(0,0,0); fill-rule: nonzero; opacity: 1;" transform=" translate(-7668.1687, -9186.5313)" d="M 7662 9195 c -25 -28 -27 -35 -12 -35 c 20 0 54 40 44 50 c -7 7 -17 2 -32 -15 z" stroke-linecap="round"/>
</g>
		<g transform="matrix(0.1333 0 0 -0.1333 -84.6671 -297.8363)">
<path style="stroke: none; stroke-width: 1; stroke-dasharray: none; stroke-linecap: butt; stroke-dashoffset: 0; stroke-linejoin: miter; stroke-miterlimit: 4; is-custom-font: none; font-file-url: none; fill: rgb(0,0,0); fill-rule: nonzero; opacity: 1;" transform=" translate(-6640, -9088.767)" d="M 6630 9103 c 0 -4 5 -15 10 -23 c 8 -13 10 -13 10 2 c 0 9 -4 20 -10 23 c -5 3 -10 3 -10 -2 z" stroke-linecap="round"/>
</g>
		<g transform="matrix(0.1333 0 0 -0.1333 28.2526 -298.2417)">
<path style="stroke: none; stroke-width: 1; stroke-dasharray: none; stroke-linecap: butt; stroke-dashoffset: 0; stroke-linejoin: miter; stroke-miterlimit: 4; is-custom-font: none; font-file-url: none; fill: rgb(0,0,0); fill-rule: nonzero; opacity: 1;" transform=" translate(-7486.898, -9091.8109)" d="M 7475 9090 c 4 -6 11 -8 16 -5 c 14 9 11 15 -7 15 c -8 0 -12 -5 -9 -10 z" stroke-linecap="round"/>
</g>
		<g transform="matrix(0.1333 0 0 -0.1333 23.9742 -294.782)">
<path style="stroke: none; stroke-width: 1; stroke-dasharray: none; stroke-linecap: butt; stroke-dashoffset: 0; stroke-linejoin: miter; stroke-miterlimit: 4; is-custom-font: none; font-file-url: none; fill: rgb(0,0,0); fill-rule: nonzero; opacity: 1;" transform=" translate(-7454.8076, -9065.8618)" d="M 7451 9064 c 0 -11 3 -14 6 -6 c 3 7 2 16 -1 19 c -3 4 -6 -2 -5 -13 z" stroke-linecap="round"/>
</g>
		<g transform="matrix(0.1333 0 0 -0.1333 -81.3591 -293.4487)">
<path style="stroke: none; stroke-width: 1; stroke-dasharray: none; stroke-linecap: butt; stroke-dashoffset: 0; stroke-linejoin: miter; stroke-miterlimit: 4; is-custom-font: none; font-file-url: none; fill: rgb(0,0,0); fill-rule: nonzero; opacity: 1;" transform=" translate(-6664.8076, -9055.8618)" d="M 6661 9054 c 0 -11 3 -14 6 -6 c 3 7 2 16 -1 19 c -3 4 -6 -2 -5 -13 z" stroke-linecap="round"/>
</g>
		<g transform="matrix(0.1333 0 0 -0.1333 -23.8039 -252.2565)">
<path style="stroke: none; stroke-width: 1; stroke-dasharray: none; stroke-linecap: butt; stroke-dashoffset: 0; stroke-linejoin: miter; stroke-miterlimit: 4; is-custom-font: none; font-file-url: none; fill: rgb(0,0,0); fill-rule: nonzero; opacity: 1;" transform=" translate(-7096.4957, -8746.8962)" d="M 7002 8848 c -9 -11 -7 -24 9 -56 c 12 -23 25 -42 30 -42 c 5 0 9 -4 9 -9 c 0 -10 26 -39 72 -80 l 28 -24 l 22 29 c 24 29 32 64 16 64 c -4 0 -13 11 -18 25 c -5 14 -14 25 -20 25 c -5 0 -27 15 -48 34 c -44 41 -83 53 -100 34 z" stroke-linecap="round"/>
</g>
		<g transform="matrix(0.1333 0 0 -0.1333 -147.8273 -197.1008)">
<path style="stroke: none; stroke-width: 1; stroke-dasharray: none; stroke-linecap: butt; stroke-dashoffset: 0; stroke-linejoin: miter; stroke-miterlimit: 4; is-custom-font: none; font-file-url: none; fill: rgb(0,0,0); fill-rule: nonzero; opacity: 1;" transform=" translate(-6166.2988, -8333.2524)" d="M 6160 8335 c -8 -9 -8 -15 -2 -15 c 12 0 26 19 19 26 c -2 2 -10 -2 -17 -11 z" stroke-linecap="round"/>
</g>
		<g transform="matrix(0.1333 0 0 -0.1333 -146.6671 -188.667)">
<path style="stroke: none; stroke-width: 1; stroke-dasharray: none; stroke-linecap: butt; stroke-dashoffset: 0; stroke-linejoin: miter; stroke-miterlimit: 4; is-custom-font: none; font-file-url: none; fill: rgb(0,0,0); fill-rule: nonzero; opacity: 1;" transform=" translate(-6175, -8270)" d="M 6165 8270 c -3 -5 -2 -10 4 -10 c 5 0 13 5 16 10 c 3 6 2 10 -4 10 c -5 0 -13 -4 -16 -10 z" stroke-linecap="round"/>
</g>
		<g transform="matrix(0.1333 0 0 -0.1333 206.9503 -175.562)">
<path style="stroke: none; stroke-width: 1; stroke-dasharray: none; stroke-linecap: butt; stroke-dashoffset: 0; stroke-linejoin: miter; stroke-miterlimit: 4; is-custom-font: none; font-file-url: none; fill: rgb(0,0,0); fill-rule: nonzero; opacity: 1;" transform=" translate(-8827.1363, -8171.7079)" d="M 8817 8183 c 5 -13 2 -15 -12 -10 c -15 6 -16 5 -5 -8 c 7 -9 19 -14 27 -11 c 7 3 13 0 13 -6 c 0 -7 6 -3 14 7 c 12 17 11 20 -11 32 c -32 17 -34 16 -26 -4 z" stroke-linecap="round"/>
</g>
		<g transform="matrix(0.1333 0 0 -0.1333 -130.4141 -176.9578)">
<path style="stroke: none; stroke-width: 1; stroke-dasharray: none; stroke-linecap: butt; stroke-dashoffset: 0; stroke-linejoin: miter; stroke-miterlimit: 4; is-custom-font: none; font-file-url: none; fill: rgb(0,0,0); fill-rule: nonzero; opacity: 1;" transform=" translate(-6296.898, -8182.1809)" d="M 6285 8180 c -3 -6 1 -7 9 -4 c 18 7 21 14 7 14 c -6 0 -13 -4 -16 -10 z" stroke-linecap="round"/>
</g>
		<g transform="matrix(0.1333 0 0 -0.1333 203.9339 -167.6314)">
<path style="stroke: none; stroke-width: 1; stroke-dasharray: none; stroke-linecap: butt; stroke-dashoffset: 0; stroke-linejoin: miter; stroke-miterlimit: 4; is-custom-font: none; font-file-url: none; fill: rgb(0,0,0); fill-rule: nonzero; opacity: 1;" transform=" translate(-8804.5069, -8112.2312)" d="M 8797 8110 c 3 -11 9 -17 15 -14 c 5 3 4 12 -3 20 c -16 19 -18 18 -12 -6 z" stroke-linecap="round"/>
</g>
		<g transform="matrix(0.1333 0 0 -0.1333 201.3076 -164.1153)">
<path style="stroke: none; stroke-width: 1; stroke-dasharray: none; stroke-linecap: butt; stroke-dashoffset: 0; stroke-linejoin: miter; stroke-miterlimit: 4; is-custom-font: none; font-file-url: none; fill: rgb(0,0,0); fill-rule: nonzero; opacity: 1;" transform=" translate(-8784.8076, -8085.8618)" d="M 8781 8084 c 0 -11 3 -14 6 -6 c 3 7 2 16 -1 19 c -3 4 -6 -2 -5 -13 z" stroke-linecap="round"/>
</g>
		<g transform="matrix(0.1333 0 0 -0.1333 149.113 -138.2757)">
<path style="stroke: none; stroke-width: 1; stroke-dasharray: none; stroke-linecap: butt; stroke-dashoffset: 0; stroke-linejoin: miter; stroke-miterlimit: 4; is-custom-font: none; font-file-url: none; fill: rgb(0,0,0); fill-rule: nonzero; opacity: 1;" transform=" translate(-8393.3581, -7892.0524)" d="M 8384 7924 c -4 -16 -13 -42 -21 -57 c -18 -36 -14 -41 35 -32 c 39 6 39 7 32 40 c -4 18 -15 43 -23 55 l -16 23 l -7 -29 z" stroke-linecap="round"/>
</g>
		<g transform="matrix(0.1333 0 0 -0.1333 209.5349 -97.2508)">
<path style="stroke: none; stroke-width: 1; stroke-dasharray: none; stroke-linecap: butt; stroke-dashoffset: 0; stroke-linejoin: miter; stroke-miterlimit: 4; is-custom-font: none; font-file-url: none; fill: rgb(0,0,0); fill-rule: nonzero; opacity: 1;" transform=" translate(-8846.5179, -7584.3801)" d="M 8828 7583 c 12 -2 30 -2 40 0 c 9 3 -1 5 -23 4 c -22 0 -30 -2 -17 -4 z" stroke-linecap="round"/>
</g>
		<g transform="matrix(0.1333 0 0 -0.1333 -101.9084 11.1491)">
<path style="stroke: none; stroke-width: 1; stroke-dasharray: none; stroke-linecap: butt; stroke-dashoffset: 0; stroke-linejoin: miter; stroke-miterlimit: 4; is-custom-font: none; font-file-url: none; fill: rgb(0,0,0); fill-rule: nonzero; opacity: 1;" transform=" translate(-6510.7019, -6771.3597)" d="M 6490 6851 l -35 -6 l -3 -74 c -2 -41 1 -78 6 -83 c 5 -5 32 -6 61 -2 l 51 7 l 0 83 c 0 94 4 90 -80 75 z" stroke-linecap="round"/>
</g>
		<g transform="matrix(0.1333 0 0 -0.1333 -75.3361 8.6644)">
<path style="stroke: none; stroke-width: 1; stroke-dasharray: none; stroke-linecap: butt; stroke-dashoffset: 0; stroke-linejoin: miter; stroke-miterlimit: 4; is-custom-font: none; font-file-url: none; fill: rgb(0,0,0); fill-rule: nonzero; opacity: 1;" transform=" translate(-6710, -6790)" d="M 6637 6853 c -4 -3 -7 -35 -7 -70 l 0 -63 l 80 0 l 80 0 l 0 70 l 0 70 l -73 0 c -41 0 -77 -3 -80 -7 z" stroke-linecap="round"/>
</g>
		<g transform="matrix(0.1333 0 0 -0.1333 -21.334 43.2788)">
<path style="stroke: none; stroke-width: 1; stroke-dasharray: none; stroke-linecap: butt; stroke-dashoffset: 0; stroke-linejoin: miter; stroke-miterlimit: 4; is-custom-font: none; font-file-url: none; fill: rgb(0,0,0); fill-rule: nonzero; opacity: 1;" transform=" translate(-7115.0624, -6530.3269)" d="M 6869 6853 c -14 -3 -17 -32 -21 -206 c -6 -280 2 -441 23 -445 c 14 -3 17 29 21 308 c 3 171 8 314 12 317 c 4 4 114 9 246 11 c 133 3 237 8 234 13 c -5 9 -484 11 -515 2 z" stroke-linecap="round"/>
</g>
		<g transform="matrix(0.1333 0 0 -0.1333 32.6643 10.4924)">
<path style="stroke: none; stroke-width: 1; stroke-dasharray: none; stroke-linecap: butt; stroke-dashoffset: 0; stroke-linejoin: miter; stroke-miterlimit: 4; is-custom-font: none; font-file-url: none; fill: rgb(0,0,0); fill-rule: nonzero; opacity: 1;" transform=" translate(-7520, -6776.2864)" d="M 7483 6853 l -33 -4 l 0 -63 c 0 -87 11 -100 83 -91 l 57 7 l 0 79 l 0 79 l -37 -2 c -21 0 -53 -3 -70 -5 z" stroke-linecap="round"/>
</g>
		<g transform="matrix(0.1333 0 0 -0.1333 64.2648 10.7308)">
<path style="stroke: none; stroke-width: 1; stroke-dasharray: none; stroke-linecap: butt; stroke-dashoffset: 0; stroke-linejoin: miter; stroke-miterlimit: 4; is-custom-font: none; font-file-url: none; fill: rgb(0,0,0); fill-rule: nonzero; opacity: 1;" transform=" translate(-7757, -6774.5)" d="M 7702 6778 l 3 -73 l 55 -3 l 55 -3 l -3 68 c -2 37 -9 71 -15 75 c -7 4 -31 8 -55 8 l -43 0 l 3 -72 z" stroke-linecap="round"/>
</g>
		<g transform="matrix(0.1333 0 0 -0.1333 -119.0016 13.9877)">
<path style="stroke: none; stroke-width: 1; stroke-dasharray: none; stroke-linecap: butt; stroke-dashoffset: 0; stroke-linejoin: miter; stroke-miterlimit: 4; is-custom-font: none; font-file-url: none; fill: rgb(0,0,0); fill-rule: nonzero; opacity: 1;" transform=" translate(-6382.5, -6750.0714)" d="M 6375 6826 l -40 -12 l 0 -74 c 0 -74 0 -75 25 -73 c 70 7 70 7 70 88 c 0 40 -3 76 -7 78 c -5 2 -26 -1 -48 -7 z" stroke-linecap="round"/>
</g>
		<g transform="matrix(0.1333 0 0 -0.1333 84.4753 14.0228)">
<path style="stroke: none; stroke-width: 1; stroke-dasharray: none; stroke-linecap: butt; stroke-dashoffset: 0; stroke-linejoin: miter; stroke-miterlimit: 4; is-custom-font: none; font-file-url: none; fill: rgb(0,0,0); fill-rule: nonzero; opacity: 1;" transform=" translate(-7908.5746, -6749.8114)" d="M 7877 6813 c -4 -3 -7 -30 -7 -59 c 0 -42 4 -55 19 -64 c 39 -20 48 -13 55 47 c 6 48 4 60 -11 70 c -18 14 -46 17 -56 6 z" stroke-linecap="round"/>
</g>
		<g transform="matrix(0.1333 0 0 -0.1333 100.7198 17.9029)">
<path style="stroke: none; stroke-width: 1; stroke-dasharray: none; stroke-linecap: butt; stroke-dashoffset: 0; stroke-linejoin: miter; stroke-miterlimit: 4; is-custom-font: none; font-file-url: none; fill: rgb(0,0,0); fill-rule: nonzero; opacity: 1;" transform=" translate(-8030.4086, -6720.711)" d="M 7992 6723 c 3 -66 4 -68 31 -71 c 19 -2 27 1 27 12 c 0 9 5 16 10 16 c 16 0 12 77 -6 94 c -8 9 -27 16 -40 16 c -24 0 -25 -2 -22 -67 z" stroke-linecap="round"/>
</g>
		<g transform="matrix(0.1333 0 0 -0.1333 -14.9402 49.7534)">
<path style="stroke: none; stroke-width: 1; stroke-dasharray: none; stroke-linecap: butt; stroke-dashoffset: 0; stroke-linejoin: miter; stroke-miterlimit: 4; is-custom-font: none; font-file-url: none; fill: rgb(0,0,0); fill-rule: nonzero; opacity: 1;" transform=" translate(-7162.9994, -6481.7768)" d="M 7107 6772 c -39 -3 -51 -8 -68 -32 c -12 -15 -29 -30 -39 -33 c -20 -5 -26 -55 -36 -328 l -6 -176 l 113 -6 c 63 -4 153 -7 201 -7 l 86 0 l 7 41 c 9 54 -4 412 -16 462 c -9 32 -18 42 -52 57 c -44 20 -109 27 -190 22 z m 28 -502 c 3 -5 1 -10 -4 -10 c -6 0 -11 5 -11 10 c 0 6 2 10 4 10 c 3 0 8 -4 11 -10 z" stroke-linecap="round"/>
</g>
		<g transform="matrix(0.1333 0 0 -0.1333 -100.5974 37.7942)">
<path style="stroke: none; stroke-width: 1; stroke-dasharray: none; stroke-linecap: butt; stroke-dashoffset: 0; stroke-linejoin: miter; stroke-miterlimit: 4; is-custom-font: none; font-file-url: none; fill: rgb(0,0,0); fill-rule: nonzero; opacity: 1;" transform=" translate(-6520.5346, -6571.5203)" d="M 6513 6662 c -50 -4 -56 -16 -49 -97 c 2 -27 5 -58 5 -67 c 1 -14 10 -18 44 -18 c 67 0 71 7 64 96 c -4 43 -10 81 -15 84 c -4 3 -26 4 -49 2 z" stroke-linecap="round"/>
</g>
		<g transform="matrix(0.1333 0 0 -0.1333 32.6891 26.7665)">
<path style="stroke: none; stroke-width: 1; stroke-dasharray: none; stroke-linecap: butt; stroke-dashoffset: 0; stroke-linejoin: miter; stroke-miterlimit: 4; is-custom-font: none; font-file-url: none; fill: rgb(0,0,0); fill-rule: nonzero; opacity: 1;" transform=" translate(-7520.1786, -6654.25)" d="M 7488 6653 c 17 -2 47 -2 65 0 c 17 2 3 4 -33 4 c -36 0 -50 -2 -32 -4 z" stroke-linecap="round"/>
</g>
		<g transform="matrix(0.1333 0 0 -0.1333 63.1676 34.2169)">
<path style="stroke: none; stroke-width: 1; stroke-dasharray: none; stroke-linecap: butt; stroke-dashoffset: 0; stroke-linejoin: miter; stroke-miterlimit: 4; is-custom-font: none; font-file-url: none; fill: rgb(0,0,0); fill-rule: nonzero; opacity: 1;" transform=" translate(-7748.7697, -6598.3575)" d="M 7702 6603 c 3 -56 4 -58 33 -63 c 58 -11 66 -4 63 59 l -3 56 l -48 3 l -48 3 l 3 -58 z" stroke-linecap="round"/>
</g>
		<g transform="matrix(0.1333 0 0 -0.1333 -74.936 34.7558)">
<path style="stroke: none; stroke-width: 1; stroke-dasharray: none; stroke-linecap: butt; stroke-dashoffset: 0; stroke-linejoin: miter; stroke-miterlimit: 4; is-custom-font: none; font-file-url: none; fill: rgb(0,0,0); fill-rule: nonzero; opacity: 1;" transform=" translate(-6713, -6594.3183)" d="M 6639 6643 c -1 -4 -2 -29 -2 -55 l -2 -48 l 78 0 l 78 0 l -3 53 l -3 52 l -72 3 c -40 2 -73 -1 -74 -5 z" stroke-linecap="round"/>
</g>
		<g transform="matrix(0.1333 0 0 -0.1333 32.6647 36.9979)">
<path style="stroke: none; stroke-width: 1; stroke-dasharray: none; stroke-linecap: butt; stroke-dashoffset: 0; stroke-linejoin: miter; stroke-miterlimit: 4; is-custom-font: none; font-file-url: none; fill: rgb(0,0,0); fill-rule: nonzero; opacity: 1;" transform=" translate(-7520, -6577.5)" d="M 7462 6578 l 3 -63 l 55 0 l 55 0 l 3 63 l 3 62 l -61 0 l -61 0 l 3 -62 z" stroke-linecap="round"/>
</g>
		<g transform="matrix(0.1333 0 0 -0.1333 83.332 37.3515)">
<path style="stroke: none; stroke-width: 1; stroke-dasharray: none; stroke-linecap: butt; stroke-dashoffset: 0; stroke-linejoin: miter; stroke-miterlimit: 4; is-custom-font: none; font-file-url: none; fill: rgb(0,0,0); fill-rule: nonzero; opacity: 1;" transform=" translate(-7900, -6574.8472)" d="M 7866 6603 c -3 -21 -6 -50 -6 -65 c 0 -26 3 -28 40 -28 l 40 0 l 0 55 c 0 43 -4 56 -19 65 c -35 18 -48 12 -55 -27 z" stroke-linecap="round"/>
</g>
		<g transform="matrix(0.1333 0 0 -0.1333 100.9193 40.8901)">
<path style="stroke: none; stroke-width: 1; stroke-dasharray: none; stroke-linecap: butt; stroke-dashoffset: 0; stroke-linejoin: miter; stroke-miterlimit: 4; is-custom-font: none; font-file-url: none; fill: rgb(0,0,0); fill-rule: nonzero; opacity: 1;" transform=" translate(-8031.9057, -6548.3109)" d="M 7992 6558 c 3 -39 6 -44 38 -55 c 19 -6 38 -8 42 -5 c 3 4 4 28 1 55 l -6 47 l -39 0 l -39 0 l 3 -42 z" stroke-linecap="round"/>
</g>
		<g transform="matrix(0.1333 0 0 -0.1333 63.6034 66.6612)">
<path style="stroke: none; stroke-width: 1; stroke-dasharray: none; stroke-linecap: butt; stroke-dashoffset: 0; stroke-linejoin: miter; stroke-miterlimit: 4; is-custom-font: none; font-file-url: none; fill: rgb(0,0,0); fill-rule: nonzero; opacity: 1;" transform=" translate(-7752.0405, -6355)" d="M 7690 6355 l 0 -165 l 59 0 l 58 0 l 5 153 c 4 94 2 157 -4 165 c -6 7 -33 12 -64 12 l -54 0 l 0 -165 z" stroke-linecap="round"/>
</g>
		<g transform="matrix(0.1333 0 0 -0.1333 -75.3218 64.3297)">
<path style="stroke: none; stroke-width: 1; stroke-dasharray: none; stroke-linecap: butt; stroke-dashoffset: 0; stroke-linejoin: miter; stroke-miterlimit: 4; is-custom-font: none; font-file-url: none; fill: rgb(0,0,0); fill-rule: nonzero; opacity: 1;" transform=" translate(-6710.1064, -6372.5)" d="M 6642 6472 c -9 -6 -12 -35 -10 -108 l 3 -99 l 75 0 l 75 0 l 3 75 c 2 41 0 90 -3 108 l -6 32 l -62 0 c -34 0 -68 -4 -75 -8 z" stroke-linecap="round"/>
</g>
		<g transform="matrix(0.1333 0 0 -0.1333 32.6643 65.3295)">
<path style="stroke: none; stroke-width: 1; stroke-dasharray: none; stroke-linecap: butt; stroke-dashoffset: 0; stroke-linejoin: miter; stroke-miterlimit: 4; is-custom-font: none; font-file-url: none; fill: rgb(0,0,0); fill-rule: nonzero; opacity: 1;" transform=" translate(-7520, -6365)" d="M 7456 6419 c -3 -34 -6 -86 -6 -115 l 0 -54 l 64 0 c 63 0 64 0 70 31 c 3 17 6 69 6 115 l 0 84 l -64 0 l -63 0 l -7 -61 z" stroke-linecap="round"/>
</g>
		<g transform="matrix(0.1333 0 0 -0.1333 83.1116 61.0987)">
<path style="stroke: none; stroke-width: 1; stroke-dasharray: none; stroke-linecap: butt; stroke-dashoffset: 0; stroke-linejoin: miter; stroke-miterlimit: 4; is-custom-font: none; font-file-url: none; fill: rgb(0,0,0); fill-rule: nonzero; opacity: 1;" transform=" translate(-7898.3473, -6396.7383)" d="M 7858 6414 c -3 -68 7 -94 37 -94 c 7 0 21 -3 30 -6 c 14 -6 16 3 13 77 l -3 84 l -37 3 l -36 3 l -4 -67 z" stroke-linecap="round"/>
</g>
		<g transform="matrix(0.1333 0 0 -0.1333 99.9001 59.1393)">
<path style="stroke: none; stroke-width: 1; stroke-dasharray: none; stroke-linecap: butt; stroke-dashoffset: 0; stroke-linejoin: miter; stroke-miterlimit: 4; is-custom-font: none; font-file-url: none; fill: rgb(0,0,0); fill-rule: nonzero; opacity: 1;" transform=" translate(-8024.2594, -6411.4437)" d="M 7990 6429 c 0 -28 2 -30 17 -18 c 13 11 15 11 9 1 c -8 -14 21 -55 33 -47 c 4 2 8 20 9 39 c 2 31 -1 38 -23 46 c -40 15 -45 13 -45 -21 z" stroke-linecap="round"/>
</g>
		<g transform="matrix(0.1333 0 0 -0.1333 83.265 82.5981)">
<path style="stroke: none; stroke-width: 1; stroke-dasharray: none; stroke-linecap: butt; stroke-dashoffset: 0; stroke-linejoin: miter; stroke-miterlimit: 4; is-custom-font: none; font-file-url: none; fill: rgb(0,0,0); fill-rule: nonzero; opacity: 1;" transform=" translate(-7899.5, -6235.5)" d="M 7852 6238 l 3 -53 l 48 -3 l 47 -3 l 0 45 c 0 48 0 47 -68 61 l -33 7 l 3 -54 z" stroke-linecap="round"/>
</g>
		<g transform="matrix(0.1333 0 0 -0.1333 99.332 84.6654)">
<path style="stroke: none; stroke-width: 1; stroke-dasharray: none; stroke-linecap: butt; stroke-dashoffset: 0; stroke-linejoin: miter; stroke-miterlimit: 4; is-custom-font: none; font-file-url: none; fill: rgb(0,0,0); fill-rule: nonzero; opacity: 1;" transform=" translate(-8020, -6220)" d="M 7980 6220 l 0 -40 l 40 0 c 34 0 40 3 40 21 c 0 37 -19 59 -50 59 c -28 0 -30 -2 -30 -40 z" stroke-linecap="round"/>
</g>
		<g transform="matrix(0.1333 0 0 -0.1333 140.6663 188.6663)">
<path style="stroke: none; stroke-width: 1; stroke-dasharray: none; stroke-linecap: butt; stroke-dashoffset: 0; stroke-linejoin: miter; stroke-miterlimit: 4; is-custom-font: none; font-file-url: none; fill: rgb(0,0,0); fill-rule: nonzero; opacity: 1;" transform=" translate(-8330, -5440)" d="M 8320 5440 c 0 -5 5 -10 10 -10 c 6 0 10 5 10 10 c 0 6 -4 10 -10 10 c -5 0 -10 -4 -10 -10 z" stroke-linecap="round"/>
</g>
		<g transform="matrix(0.1333 0 0 -0.1333 -129.8845 300.5312)">
<path style="stroke: none; stroke-width: 1; stroke-dasharray: none; stroke-linecap: butt; stroke-dashoffset: 0; stroke-linejoin: miter; stroke-miterlimit: 4; is-custom-font: none; font-file-url: none; fill: rgb(0,0,0); fill-rule: nonzero; opacity: 1;" transform=" translate(-6300.9232, -4600.9512)" d="M 6213 4839 c -109 -54 -164 -182 -129 -301 c 32 -110 109 -182 208 -194 c 50 -6 62 -3 101 19 c 87 51 145 174 134 281 c -17 163 -177 263 -314 195 z" stroke-linecap="round"/>
</g>
		<g transform="matrix(0.1333 0 0 -0.1333 55.9457 300.5249)">
<path style="stroke: none; stroke-width: 1; stroke-dasharray: none; stroke-linecap: butt; stroke-dashoffset: 0; stroke-linejoin: miter; stroke-miterlimit: 4; is-custom-font: none; font-file-url: none; fill: rgb(0,0,0); fill-rule: nonzero; opacity: 1;" transform=" translate(-7694.6332, -4601)" d="M 7531 4629 c 0 -123 2 -236 5 -251 c 5 -27 7 -28 72 -28 c 165 0 267 115 248 277 c -17 147 -89 213 -243 221 l -82 4 l 0 -223 z" stroke-linecap="round"/>
</g>
		<g transform="matrix(0.1333 0 0 -0.1333 46.0235 -475.9668)">
<path style="stroke: none; stroke-width: 1; stroke-dasharray: none; stroke-linecap: butt; stroke-dashoffset: 0; stroke-linejoin: miter; stroke-miterlimit: 4; is-custom-font: none; font-file-url: none; fill: rgb(0,0,0); fill-rule: nonzero; opacity: 1;" transform=" translate(-7620.1815, -10424.75)" d="M 7603 10423 c 9 -2 25 -2 35 0 c 9 3 1 5 -18 5 c -19 0 -27 -2 -17 -5 z" stroke-linecap="round"/>
</g>
		<g transform="matrix(0.1333 0 0 -0.1333 -118.5522 -470.6924)">
<path style="stroke: none; stroke-width: 1; stroke-dasharray: none; stroke-linecap: butt; stroke-dashoffset: 0; stroke-linejoin: miter; stroke-miterlimit: 4; is-custom-font: none; font-file-url: none; fill: rgb(0,0,0); fill-rule: nonzero; opacity: 1;" transform=" translate(-6385.8618, -10385.1924)" d="M 6378 10383 c 7 -3 16 -2 19 1 c 4 3 -2 6 -13 5 c -11 0 -14 -3 -6 -6 z" stroke-linecap="round"/>
</g>
		<g transform="matrix(0.1333 0 0 -0.1333 78.0235 -470.6334)">
<path style="stroke: none; stroke-width: 1; stroke-dasharray: none; stroke-linecap: butt; stroke-dashoffset: 0; stroke-linejoin: miter; stroke-miterlimit: 4; is-custom-font: none; font-file-url: none; fill: rgb(0,0,0); fill-rule: nonzero; opacity: 1;" transform=" translate(-7860.1815, -10384.75)" d="M 7843 10383 c 9 -2 25 -2 35 0 c 9 3 1 5 -18 5 c -19 0 -27 -2 -17 -5 z" stroke-linecap="round"/>
</g>
		<g transform="matrix(0.1333 0 0 -0.1333 101.4478 -465.3591)">
<path style="stroke: none; stroke-width: 1; stroke-dasharray: none; stroke-linecap: butt; stroke-dashoffset: 0; stroke-linejoin: miter; stroke-miterlimit: 4; is-custom-font: none; font-file-url: none; fill: rgb(0,0,0); fill-rule: nonzero; opacity: 1;" transform=" translate(-8035.8618, -10345.1924)" d="M 8028 10343 c 7 -3 16 -2 19 1 c 4 3 -2 6 -13 5 c -11 0 -14 -3 -6 -6 z" stroke-linecap="round"/>
</g>
		<g transform="matrix(0.1333 0 0 -0.1333 59.1306 -415.2107)">
<path style="stroke: none; stroke-width: 1; stroke-dasharray: none; stroke-linecap: butt; stroke-dashoffset: 0; stroke-linejoin: miter; stroke-miterlimit: 4; is-custom-font: none; font-file-url: none; fill: rgb(0,0,0); fill-rule: nonzero; opacity: 1;" transform=" translate(-7718.694, -9969.0014)" d="M 6898 10283 c -28 -3 -38 -9 -38 -22 c 0 -43 86 -139 232 -259 c 10 -8 41 -16 70 -18 c 199 -12 257 -17 368 -30 c 69 -9 160 -24 204 -35 c 43 -11 80 -18 82 -16 c 2 2 -25 47 -60 100 c -36 53 -68 107 -71 119 c -11 33 16 45 120 53 c 96 7 160 2 170 -15 c 7 -12 -22 -124 -41 -163 c -8 -15 -31 -46 -51 -68 c -20 -22 -34 -41 -32 -42 c 2 -2 103 -35 224 -76 c 121 -40 260 -92 309 -117 c 49 -24 90 -43 92 -42 c 1 2 -9 39 -23 83 c -34 111 -37 133 -23 150 c 7 9 11 18 8 20 c -10 10 -37 -7 -61 -39 c -14 -17 -43 -44 -65 -60 c -37 -25 -44 -27 -76 -16 c -41 13 -84 59 -115 123 c -12 25 -29 51 -37 57 c -29 25 -9 168 23 156 c 8 -3 17 -6 19 -6 c 10 0 2 -24 -16 -47 c -28 -36 -26 -71 5 -83 c 14 -5 34 -28 47 -54 c 13 -25 38 -56 57 -70 l 34 -25 l 26 19 c 14 11 47 46 72 78 c 54 67 84 75 169 43 c 30 -11 55 -19 57 -17 c 16 16 -467 181 -678 231 c -271 65 -447 86 -729 90 c -129 2 -252 1 -272 -2 z m 348 -59 c 67 -32 12 -59 -101 -49 c -62 5 -175 43 -175 59 c 0 4 54 6 121 6 c 91 0 129 -4 155 -16 z m 202 10 c 39 -11 24 -39 -68 -122 l -91 -82 l -80 0 c -77 0 -139 18 -139 39 c 0 5 26 7 58 4 c 49 -5 60 -2 76 16 c 11 11 29 21 42 21 c 14 0 50 25 93 65 c 39 36 74 65 79 65 c 4 0 17 -3 30 -6 z m 141 -56 c 34 -86 37 -114 12 -128 c -20 -10 -24 -5 -62 74 c -23 47 -38 90 -34 95 c 3 6 19 11 34 11 c 25 0 31 -7 50 -52 z m -109 -120 c 27 -45 25 -58 -8 -58 c -31 0 -72 25 -72 43 c 0 10 44 45 58 47 c 1 0 11 -15 22 -32 z m 800 -43 c 35 -18 36 -22 13 -47 c -29 -33 -103 -15 -103 26 c 0 35 43 45 90 21 z" stroke-linecap="round"/>
</g>
		<g transform="matrix(0.1333 0 0 -0.1333 75.3062 -425.1302)">
<path style="stroke: none; stroke-width: 1; stroke-dasharray: none; stroke-linecap: butt; stroke-dashoffset: 0; stroke-linejoin: miter; stroke-miterlimit: 4; is-custom-font: none; font-file-url: none; fill: rgb(0,0,0); fill-rule: nonzero; opacity: 1;" transform=" translate(-7839.8152, -10043.4576)" d="M 7800 10113 c -41 -8 -45 -20 -19 -55 c 14 -18 30 -45 37 -60 c 27 -63 87 -10 94 82 l 3 35 l -45 1 c -25 1 -56 0 -70 -3 z" stroke-linecap="round"/>
</g>
		<g transform="matrix(0.1333 0 0 -0.1333 -241.3339 -422.3063)">
<path style="stroke: none; stroke-width: 1; stroke-dasharray: none; stroke-linecap: butt; stroke-dashoffset: 0; stroke-linejoin: miter; stroke-miterlimit: 4; is-custom-font: none; font-file-url: none; fill: rgb(0,0,0); fill-rule: nonzero; opacity: 1;" transform=" translate(-5465, -10022.2952)" d="M 5450 10020 c 0 -5 7 -7 15 -4 c 8 4 15 8 15 10 c 0 2 -7 4 -15 4 c -8 0 -15 -4 -15 -10 z" stroke-linecap="round"/>
</g>
		<g transform="matrix(0.1333 0 0 -0.1333 -259.0943 -412.6671)">
<path style="stroke: none; stroke-width: 1; stroke-dasharray: none; stroke-linecap: butt; stroke-dashoffset: 0; stroke-linejoin: miter; stroke-miterlimit: 4; is-custom-font: none; font-file-url: none; fill: rgb(0,0,0); fill-rule: nonzero; opacity: 1;" transform=" translate(-5331.7952, -9950)" d="M 5325 9950 c -3 -5 -1 -10 4 -10 c 6 0 11 5 11 10 c 0 6 -2 10 -4 10 c -3 0 -8 -4 -11 -10 z" stroke-linecap="round"/>
</g>
		<g transform="matrix(0.1333 0 0 -0.1333 284.0071 -274.3308)">
<path style="stroke: none; stroke-width: 1; stroke-dasharray: none; stroke-linecap: butt; stroke-dashoffset: 0; stroke-linejoin: miter; stroke-miterlimit: 4; is-custom-font: none; font-file-url: none; fill: rgb(0,0,0); fill-rule: nonzero; opacity: 1;" transform=" translate(-9405.2897, -8912.2227)" d="M 8608 9939 c -2 -7 -35 -16 -72 -20 c -77 -10 -89 -16 -63 -31 c 24 -13 52 -80 82 -191 c 13 -49 29 -95 36 -103 c 28 -33 140 -89 262 -131 c 81 -27 177 -69 248 -109 c 124 -68 145 -74 331 -95 c 109 -12 139 -27 98 -49 c -21 -11 -72 -6 -164 17 c -32 8 -60 12 -63 9 c -9 -8 67 -90 135 -146 c 34 -28 62 -55 62 -60 c 0 -8 -24 -20 -41 -20 c -20 0 -111 96 -164 172 c -40 56 -63 79 -83 84 c -15 3 -79 30 -142 59 c -121 57 -220 97 -220 91 c 0 -2 57 -46 126 -98 c 166 -122 318 -250 427 -360 c 48 -48 91 -88 95 -88 c 15 -1 178 -30 200 -36 c 22 -6 21 -4 -13 77 c -19 46 -55 114 -80 150 c -25 36 -45 73 -45 81 c 0 18 24 30 43 22 c 17 -7 144 -185 170 -239 c 22 -44 23 -45 66 -43 c 40 3 46 0 60 -25 c 19 -33 13 -39 -65 -56 c -63 -14 -71 -23 -50 -56 l 16 -24 l 52 24 c 65 30 99 31 123 5 c 23 -26 16 -33 -65 -63 c -94 -36 -90 -55 17 -83 c 90 -22 156 -64 161 -103 c 3 -18 -1 -21 -35 -21 c -21 0 -71 9 -110 19 c -64 17 -73 17 -73 4 c 0 -9 43 -99 95 -202 c 69 -136 103 -217 127 -300 c 19 -66 39 -116 47 -119 c 11 -4 12 1 7 19 c -4 13 -11 112 -17 219 c -8 148 -15 210 -30 258 c -12 35 -18 66 -16 69 c 12 11 44 -10 74 -51 c 63 -83 89 -208 58 -276 c -10 -22 -16 -43 -13 -46 c 4 -3 23 -1 45 5 c 21 6 53 11 71 11 c 22 0 32 5 32 15 c 0 15 -142 296 -268 530 c -87 163 -257 399 -367 510 c -190 193 -501 448 -700 576 c -106 68 -230 139 -243 139 c -13 0 -29 -52 -39 -126 c -6 -44 -5 -48 10 -36 c 9 8 19 22 22 33 c 10 30 23 22 31 -16 c 3 -19 10 -35 14 -35 c 5 0 23 12 40 27 l 32 26 l 55 -17 c 60 -19 60 -27 -2 -46 c -22 -7 -61 -27 -87 -46 c -148 -105 -208 -97 -208 29 c 0 32 7 93 17 135 c 24 113 23 123 -14 144 c -22 13 -32 15 -35 7 z m 30 -91 c 3 -24 0 -28 -21 -28 c -24 0 -37 16 -37 46 c 0 11 8 14 28 12 c 21 -2 28 -9 30 -30 z m 367 -277 c 43 -19 105 -82 105 -106 c 0 -20 -13 -19 -58 3 c -20 11 -74 32 -119 47 c -46 16 -83 31 -83 35 c 0 11 64 39 90 39 c 14 0 43 -8 65 -18 z m 182 -17 c 8 -21 -13 -42 -28 -27 c -13 13 -5 43 11 43 c 6 0 13 -7 17 -16 z m 87 -115 c 34 -27 34 -57 0 -70 c -53 -20 -104 53 -56 80 c 24 14 26 14 56 -10 z m 293 -441 c 44 -49 31 -90 -21 -67 c -29 13 -40 39 -31 69 c 8 26 27 25 52 -2 z" stroke-linecap="round"/>
</g>
		<g transform="matrix(0.1333 0 0 -0.1333 -268.6671 -406.2397)">
<path style="stroke: none; stroke-width: 1; stroke-dasharray: none; stroke-linecap: butt; stroke-dashoffset: 0; stroke-linejoin: miter; stroke-miterlimit: 4; is-custom-font: none; font-file-url: none; fill: rgb(0,0,0); fill-rule: nonzero; opacity: 1;" transform=" translate(-5260, -9901.7952)" d="M 5250 9899 c 0 -5 5 -7 10 -4 c 6 3 10 8 10 11 c 0 2 -4 4 -10 4 c -5 0 -10 -5 -10 -11 z" stroke-linecap="round"/>
</g>
		<g transform="matrix(0.1333 0 0 -0.1333 194.6661 -373.7565)">
<path style="stroke: none; stroke-width: 1; stroke-dasharray: none; stroke-linecap: butt; stroke-dashoffset: 0; stroke-linejoin: miter; stroke-miterlimit: 4; is-custom-font: none; font-file-url: none; fill: rgb(0,0,0); fill-rule: nonzero; opacity: 1;" transform=" translate(-8735, -9658.1696)" d="M 8720 9661 c 0 -12 6 -21 15 -21 c 8 0 15 4 15 9 c 0 5 -7 14 -15 21 c -13 10 -15 9 -15 -9 z" stroke-linecap="round"/>
</g>
		<g transform="matrix(0.1333 0 0 -0.1333 322.464 -324.6222)">
<path style="stroke: none; stroke-width: 1; stroke-dasharray: none; stroke-linecap: butt; stroke-dashoffset: 0; stroke-linejoin: miter; stroke-miterlimit: 4; is-custom-font: none; font-file-url: none; fill: rgb(0,0,0); fill-rule: nonzero; opacity: 1;" transform=" translate(-9693.4877, -9289.6601)" d="M 9666 9312 c -10 -9 5 -22 25 -22 c 10 0 18 -5 17 -11 c -2 -6 2 -13 8 -16 c 7 -2 10 5 7 21 c -5 22 -44 42 -57 28 z" stroke-linecap="round"/>
</g>
		<g transform="matrix(0.1333 0 0 -0.1333 256.4417 -287.2817)">
<path style="stroke: none; stroke-width: 1; stroke-dasharray: none; stroke-linecap: butt; stroke-dashoffset: 0; stroke-linejoin: miter; stroke-miterlimit: 4; is-custom-font: none; font-file-url: none; fill: rgb(0,0,0); fill-rule: nonzero; opacity: 1;" transform=" translate(-9198.3722, -9009.5497)" d="M 8960 9257 c 0 -2 60 -59 133 -126 c 145 -135 256 -257 257 -282 c 0 -15 72 -89 85 -89 c 3 0 2 12 -2 27 c -13 53 -73 131 -160 211 c -48 44 -126 114 -173 157 c -72 66 -140 115 -140 102 z" stroke-linecap="round"/>
</g>
		<g transform="matrix(0.1333 0 0 -0.1333 335.8343 -313.2265)">
<path style="stroke: none; stroke-width: 1; stroke-dasharray: none; stroke-linecap: butt; stroke-dashoffset: 0; stroke-linejoin: miter; stroke-miterlimit: 4; is-custom-font: none; font-file-url: none; fill: rgb(0,0,0); fill-rule: nonzero; opacity: 1;" transform=" translate(-9793.7709, -9204.1903)" d="M 9768 9204 c 30 -36 42 -42 42 -19 c 0 9 9 15 22 15 c 20 0 20 1 4 19 c -11 12 -30 18 -56 18 l -40 0 l 28 -33 z" stroke-linecap="round"/>
</g>
		<g transform="matrix(0.1333 0 0 -0.1333 402.7533 -148.6922)">
<path style="stroke: none; stroke-width: 1; stroke-dasharray: none; stroke-linecap: butt; stroke-dashoffset: 0; stroke-linejoin: miter; stroke-miterlimit: 4; is-custom-font: none; font-file-url: none; fill: rgb(0,0,0); fill-rule: nonzero; opacity: 1;" transform=" translate(-10295.6732, -7970.1771)" d="M 10254 8019 c -42 -12 -56 -31 -52 -71 l 3 -33 l 93 -3 c 50 -1 92 1 92 6 c 0 19 -24 78 -38 95 c -16 18 -49 21 -98 6 z" stroke-linecap="round"/>
</g>
		<g transform="matrix(0.1333 0 0 -0.1333 404.4627 26.9842)">
<path style="stroke: none; stroke-width: 1; stroke-dasharray: none; stroke-linecap: butt; stroke-dashoffset: 0; stroke-linejoin: miter; stroke-miterlimit: 4; is-custom-font: none; font-file-url: none; fill: rgb(0,0,0); fill-rule: nonzero; opacity: 1;" transform=" translate(-10308.543, -6652.3324)" d="M 10282 7793 c -82 -3 -93 -6 -88 -21 c 2 -9 12 -46 21 -82 c 19 -78 40 -102 128 -146 c 69 -35 88 -57 69 -76 c -7 -7 -33 2 -88 32 c -73 40 -77 41 -70 19 c 47 -166 67 -339 71 -634 l 4 -240 l 53 -7 c 29 -3 79 -6 111 -7 c 65 -1 74 -16 31 -50 c -23 -18 -41 -21 -115 -21 c -49 0 -89 -2 -89 -4 c 0 -3 -11 -65 -25 -138 c -30 -162 -56 -251 -179 -617 c -53 -156 -96 -287 -96 -291 c 0 -4 26 2 57 12 c 34 12 71 18 90 15 c 21 -4 33 -1 37 8 c 2 7 0 69 -7 138 c -12 141 -3 236 30 302 c 61 122 194 324 250 380 l 31 32 l -66 11 c -72 12 -112 42 -112 84 c 0 19 4 20 58 14 c 31 -3 87 -9 123 -12 l 66 -6 l 6 53 c 12 94 19 492 10 539 c -7 37 -12 45 -31 45 c -46 0 -57 62 -17 99 l 26 24 l -26 116 c -26 121 -45 179 -64 190 c -6 4 -11 27 -11 52 c 0 52 -2 52 -120 30 c -46 -9 -80 -11 -91 -6 c -20 11 -33 40 -22 51 c 4 4 54 16 111 27 c 57 11 106 23 110 26 c 3 4 1 19 -4 34 c -11 30 -13 31 -172 25 z m 232 -426 c 5 -35 1 -80 -10 -133 c -25 -121 -16 -205 29 -287 c 26 -45 37 -78 37 -106 c 0 -23 -4 -41 -8 -41 c -22 0 -130 129 -148 175 c -30 80 -25 197 14 315 c 32 97 57 144 72 135 c 4 -2 11 -29 14 -58 z m -158 -51 c -4 -31 -12 -56 -17 -56 c -10 0 -13 113 -2 123 c 16 17 25 -15 19 -67 z m 135 -556 c 38 -21 14 -86 -28 -78 c -20 4 -28 28 -19 64 c 7 26 17 29 47 14 z" stroke-linecap="round"/>
</g>
		<g transform="matrix(0.1333 0 0 -0.1333 415.4534 127.5193)">
<path style="stroke: none; stroke-width: 1; stroke-dasharray: none; stroke-linecap: butt; stroke-dashoffset: 0; stroke-linejoin: miter; stroke-miterlimit: 4; is-custom-font: none; font-file-url: none; fill: rgb(0,0,0); fill-rule: nonzero; opacity: 1;" transform=" translate(-10390.942, -5898.4808)" d="M 10546 6385 c -36 -87 -63 -134 -131 -230 c -43 -60 -90 -137 -104 -170 c -25 -57 -26 -68 -26 -247 l 0 -186 l -34 -48 c -31 -45 -33 -50 -19 -74 c 24 -44 46 -37 72 22 c 82 188 261 836 254 917 c -3 30 -5 33 -12 16 z" stroke-linecap="round"/>
</g>
		<g transform="matrix(0.1333 0 0 -0.1333 -482.6334 67.3084)">
<path style="stroke: none; stroke-width: 1; stroke-dasharray: none; stroke-linecap: butt; stroke-dashoffset: 0; stroke-linejoin: miter; stroke-miterlimit: 4; is-custom-font: none; font-file-url: none; fill: rgb(0,0,0); fill-rule: nonzero; opacity: 1;" transform=" translate(-3655.25, -6350.1815)" d="M 3652 6350 c 0 -19 2 -27 5 -17 c 2 9 2 25 0 35 c -3 9 -5 1 -5 -18 z" stroke-linecap="round"/>
</g>
		<g transform="matrix(0.1333 0 0 -0.1333 264.3829 124.102)">
<path style="stroke: none; stroke-width: 1; stroke-dasharray: none; stroke-linecap: butt; stroke-dashoffset: 0; stroke-linejoin: miter; stroke-miterlimit: 4; is-custom-font: none; font-file-url: none; fill: rgb(0,0,0); fill-rule: nonzero; opacity: 1;" transform=" translate(-9257.8851, -5924.2291)" d="M 9210 5935 c -5 -6 -5 -17 0 -24 c 7 -13 22 -12 80 3 c 8 3 17 5 19 5 c 2 1 -2 7 -8 15 c -14 16 -78 17 -91 1 z" stroke-linecap="round"/>
</g>
		<g transform="matrix(0.1333 0 0 -0.1333 264.1145 129.3076)">
<path style="stroke: none; stroke-width: 1; stroke-dasharray: none; stroke-linecap: butt; stroke-dashoffset: 0; stroke-linejoin: miter; stroke-miterlimit: 4; is-custom-font: none; font-file-url: none; fill: rgb(0,0,0); fill-rule: nonzero; opacity: 1;" transform=" translate(-9255.8618, -5885.1924)" d="M 9248 5883 c 7 -3 16 -2 19 1 c 4 3 -2 6 -13 5 c -11 0 -14 -3 -6 -6 z" stroke-linecap="round"/>
</g>
		<g transform="matrix(0.1333 0 0 -0.1333 273.3285 131.9099)">
<path style="stroke: none; stroke-width: 1; stroke-dasharray: none; stroke-linecap: butt; stroke-dashoffset: 0; stroke-linejoin: miter; stroke-miterlimit: 4; is-custom-font: none; font-file-url: none; fill: rgb(0,0,0); fill-rule: nonzero; opacity: 1;" transform=" translate(-9324.9694, -5865.6718)" d="M 9301 5876 c 2 -2 15 -9 29 -16 c 23 -12 24 -12 11 3 c -7 10 -20 17 -29 17 c -8 0 -13 -2 -11 -4 z" stroke-linecap="round"/>
</g>
		<g transform="matrix(0.1333 0 0 -0.1333 -466.6334 133.9758)">
<path style="stroke: none; stroke-width: 1; stroke-dasharray: none; stroke-linecap: butt; stroke-dashoffset: 0; stroke-linejoin: miter; stroke-miterlimit: 4; is-custom-font: none; font-file-url: none; fill: rgb(0,0,0); fill-rule: nonzero; opacity: 1;" transform=" translate(-3775.25, -5850.1777)" d="M 3772 5850 c 0 -14 2 -19 5 -12 c 2 6 2 18 0 25 c -3 6 -5 1 -5 -13 z" stroke-linecap="round"/>
</g>
		<g transform="matrix(0.1333 0 0 -0.1333 273.5388 137.6829)">
<path style="stroke: none; stroke-width: 1; stroke-dasharray: none; stroke-linecap: butt; stroke-dashoffset: 0; stroke-linejoin: miter; stroke-miterlimit: 4; is-custom-font: none; font-file-url: none; fill: rgb(0,0,0); fill-rule: nonzero; opacity: 1;" transform=" translate(-9326.5554, -5822.3711)" d="M 9289 5841 c 11 -7 10 -11 -5 -19 c -27 -15 -14 -22 50 -26 c 47 -3 54 -1 45 10 c -6 8 -22 14 -34 14 c -12 0 -28 7 -35 15 c -7 8 -18 15 -24 15 c -6 0 -5 -4 3 -9 z" stroke-linecap="round"/>
</g>
		<g transform="matrix(0.1333 0 0 -0.1333 238.3993 188.6663)">
<path style="stroke: none; stroke-width: 1; stroke-dasharray: none; stroke-linecap: butt; stroke-dashoffset: 0; stroke-linejoin: miter; stroke-miterlimit: 4; is-custom-font: none; font-file-url: none; fill: rgb(0,0,0); fill-rule: nonzero; opacity: 1;" transform=" translate(-9062.998, -5440)" d="M 9050 5440 c 0 -5 7 -10 16 -10 c 8 0 12 5 9 10 c -3 6 -10 10 -16 10 c -5 0 -9 -4 -9 -10 z" stroke-linecap="round"/>
</g>
		<g transform="matrix(0.1333 0 0 -0.1333 215.2796 191.3497)">
<path style="stroke: none; stroke-width: 1; stroke-dasharray: none; stroke-linecap: butt; stroke-dashoffset: 0; stroke-linejoin: miter; stroke-miterlimit: 4; is-custom-font: none; font-file-url: none; fill: rgb(0,0,0); fill-rule: nonzero; opacity: 1;" transform=" translate(-8889.6039, -5419.875)" d="M 8870 5420 c -12 -8 -9 -10 12 -10 c 15 0 30 5 33 10 c 8 13 -25 13 -45 0 z" stroke-linecap="round"/>
</g>
		<g transform="matrix(0.1333 0 0 -0.1333 265.4478 190.6409)">
<path style="stroke: none; stroke-width: 1; stroke-dasharray: none; stroke-linecap: butt; stroke-dashoffset: 0; stroke-linejoin: miter; stroke-miterlimit: 4; is-custom-font: none; font-file-url: none; fill: rgb(0,0,0); fill-rule: nonzero; opacity: 1;" transform=" translate(-9265.8618, -5425.1924)" d="M 9258 5423 c 7 -3 16 -2 19 1 c 4 3 -2 6 -13 5 c -11 0 -14 -3 -6 -6 z" stroke-linecap="round"/>
</g>
		<g transform="matrix(0.1333 0 0 -0.1333 201.4478 191.9742)">
<path style="stroke: none; stroke-width: 1; stroke-dasharray: none; stroke-linecap: butt; stroke-dashoffset: 0; stroke-linejoin: miter; stroke-miterlimit: 4; is-custom-font: none; font-file-url: none; fill: rgb(0,0,0); fill-rule: nonzero; opacity: 1;" transform=" translate(-8785.8618, -5415.1924)" d="M 8778 5413 c 7 -3 16 -2 19 1 c 4 3 -2 6 -13 5 c -11 0 -14 -3 -6 -6 z" stroke-linecap="round"/>
</g>
		<g transform="matrix(0.1333 0 0 -0.1333 222.0255 194.4578)">
<path style="stroke: none; stroke-width: 1; stroke-dasharray: none; stroke-linecap: butt; stroke-dashoffset: 0; stroke-linejoin: miter; stroke-miterlimit: 4; is-custom-font: none; font-file-url: none; fill: rgb(0,0,0); fill-rule: nonzero; opacity: 1;" transform=" translate(-8940.1964, -5396.5602)" d="M 8930 5401 c -15 -28 -13 -33 10 -21 c 11 6 20 17 20 25 c 0 21 -17 18 -30 -4 z" stroke-linecap="round"/>
</g>
		<g transform="matrix(0.1333 0 0 -0.1333 180.0995 263.6313)">
<path style="stroke: none; stroke-width: 1; stroke-dasharray: none; stroke-linecap: butt; stroke-dashoffset: 0; stroke-linejoin: miter; stroke-miterlimit: 4; is-custom-font: none; font-file-url: none; fill: rgb(0,0,0); fill-rule: nonzero; opacity: 1;" transform=" translate(-8625.7852, -4877.7159)" d="M 8498 5074 c -32 -10 -36 -126 -7 -228 c 12 -42 87 -129 131 -152 c 42 -22 114 -18 139 7 c 19 19 21 30 18 133 c -4 111 -5 114 -41 168 c -29 44 -43 57 -70 61 c -55 10 -152 16 -170 11 z" stroke-linecap="round"/>
</g>
		<g transform="matrix(0.1333 0 0 -0.1333 -386.2397 283.3329)">
<path style="stroke: none; stroke-width: 1; stroke-dasharray: none; stroke-linecap: butt; stroke-dashoffset: 0; stroke-linejoin: miter; stroke-miterlimit: 4; is-custom-font: none; font-file-url: none; fill: rgb(0,0,0); fill-rule: nonzero; opacity: 1;" transform=" translate(-4378.2048, -4730)" d="M 4370 4730 c 0 -5 5 -10 11 -10 c 5 0 7 5 4 10 c -3 6 -8 10 -11 10 c -2 0 -4 -4 -4 -10 z" stroke-linecap="round"/>
</g>
</g>
</g>
</svg>